<?xml version="1.0" standalone="no"?>
<!DOCTYPE svg PUBLIC "-//W3C//DTD SVG 1.1//EN" "http://www.w3.org/Graphics/SVG/1.1/DTD/svg11.dtd" >
<svg xmlns="http://www.w3.org/2000/svg">
<metadata>
This is a custom SVG webfont generated by Font Squirrel.
Copyright   : Copyright c 2009 by Eduardo Manso All rights reserved
Designer    : Eduardo Manso
Foundry     : Eduardo Manso
Foundry URL : httpwwwemtypenet
</metadata>
<defs>
<font id="GeogrotesqueUltraLight" horiz-adv-x="1085" >
<font-face units-per-em="2048" ascent="1536" descent="-512" />
<missing-glyph horiz-adv-x="493" />
<glyph unicode=" "  horiz-adv-x="493" />
<glyph unicode="&#x09;" horiz-adv-x="493" />
<glyph unicode="&#xa0;" horiz-adv-x="493" />
<glyph unicode="!" horiz-adv-x="493" d="M209 799v575q0 18 18 19h37q18 0 19 -19v-575l-9 -471q0 -18 -16 -19h-22q-18 0 -19 19zM211 18v156q0 18 18 19h33q18 0 19 -19v-156q0 -18 -19 -18h-33q-18 0 -18 18z" />
<glyph unicode="&#x22;" horiz-adv-x="679" d="M186 1374q0 18 17 19h37q16 0 16 -19l-6 -360q0 -18 -19 -19h-20q-18 0 -18 19zM424 1374q0 18 16 19h35q18 0 19 -19l-7 -360q0 -18 -18 -19h-20q-18 0 -19 19z" />
<glyph unicode="#" horiz-adv-x="1306" d="M188 514v21q0 16 17 16h182l74 266h-176q-18 0 -19 19v20q0 16 19 16h192l60 220q6 18 24 18h27q16 0 12 -18l-61 -220h348l61 220q6 18 23 18h26q16 0 13 -18l-60 -220h152q16 0 16 -16v-20q0 -18 -16 -19h-168l-74 -266h162q18 0 18 -16v-21q0 -16 -18 -16h-178 l-58 -215q-6 -18 -22 -19h-29q-16 0 -12 19l59 215h-348l-59 -215q-6 -18 -21 -19h-28q-16 0 -13 19l60 215h-168q-17 0 -17 16zM451 551h346l75 266h-348z" />
<glyph unicode="$" horiz-adv-x="1073" d="M186 387v59q0 16 19 17h31q16 0 16 -17v-57q0 -72 70.5 -115t212 -43t213 43t71.5 115v107q0 98 -135 137l-326 98q-59 18 -109 68.5t-50 120.5v86q0 90 75.5 147t235.5 61v160q0 18 18 19h33q18 0 19 -19v-162q145 -8 216.5 -64t71.5 -142v-72q0 -14 -18 -14h-31 q-14 0 -14 14v72q0 72 -67.5 113.5t-205.5 41.5q-268 0 -268 -155v-76q0 -53 39 -90t88 -52l326 -98q74 -23 121 -69t47 -111v-123q0 -88 -77 -145.5t-228 -65.5v-158q0 -18 -19 -18h-33q-18 0 -18 18v158q-164 4 -244 61.5t-80 149.5z" />
<glyph unicode="%" horiz-adv-x="1480" d="M188 995v236q0 174 252 174t252 -174v-236q0 -174 -252 -174t-252 174zM248 997q0 -123 192 -123q190 0 191 123v234q0 123 -191 123q-193 0 -192 -123v-234zM399 18l602 1356q8 18 25 19h27q20 0 12 -19l-602 -1356q-8 -18 -25 -18h-30q-19 0 -9 18zM788 158v235 q0 174 252 174t252 -174v-235q0 -174 -252 -174t-252 174zM848 158q0 -123 192 -123q190 0 191 123v233q0 123 -191 123q-193 0 -192 -123v-233z" />
<glyph unicode="&#x26;" horiz-adv-x="1347" d="M207 256v252q0 102 42 160.5t159 81.5q-111 23 -150 79t-39 156v152q0 131 81 201.5t292 70.5t293 -70.5t82 -201.5v-33q0 -18 -17 -19h-32q-18 0 -19 19v26q0 106 -65.5 163t-241.5 57q-174 0 -239.5 -56.5t-65.5 -163.5v-139q0 -111 61.5 -162t243.5 -51h643 q18 0 18 -18v-25q0 -18 -18 -18h-172v-461q0 -272 -428 -272t-428 272zM274 262q0 -219 360.5 -219t360.5 219v455h-413q-184 0 -246 -52.5t-62 -160.5v-242z" />
<glyph unicode="'" horiz-adv-x="442" d="M186 1374q0 18 17 19h37q16 0 16 -19l-6 -360q0 -18 -19 -19h-20q-18 0 -18 19z" />
<glyph unicode="(" horiz-adv-x="722" d="M207 -207v1417q0 115 80 177.5t270 62.5h8q18 0 19 -18v-23q0 -18 -19 -18h-8q-156 0 -218.5 -48.5t-62.5 -138.5v-1405q0 -90 62.5 -138t218.5 -48h8q18 0 19 -19v-22q0 -18 -19 -18h-8q-190 0 -270 62t-80 177z" />
<glyph unicode=")" horiz-adv-x="722" d="M139 -406q0 18 19 19h8q156 0 218 48t62 138v1405q0 90 -62 138.5t-218 48.5h-8q-18 0 -19 18v23q0 18 19 18h8q348 0 348 -240v-1417q0 -240 -348 -239h-8q-18 0 -19 18v22z" />
<glyph unicode="*" horiz-adv-x="1009" d="M215 958q-10 16 6 25l238 141l-238 144q-16 8 -6 24l8 15q8 18 25 8l235 -154l-6 277q0 18 19 18h18q16 0 16 -18l-6 -279l236 156q14 10 26 -8l9 -15q8 -14 -9 -24l-237 -144l237 -141q16 -10 9 -25l-9 -16q-8 -18 -26 -6l-236 151l6 -272q0 -20 -16 -20h-18 q-18 0 -19 20l6 275l-235 -154q-16 -10 -25 6z" />
<glyph unicode="+" horiz-adv-x="1208" d="M186 682v25q0 18 17 18h368v371q0 18 19 18h24q16 0 17 -18v-371h373q18 0 18 -18v-25q0 -16 -18 -16h-373v-371q0 -18 -17 -19h-24q-18 0 -19 19v371h-368q-17 0 -17 16z" />
<glyph unicode="," horiz-adv-x="417" d="M57 -127q-6 14 11 25q106 51 106 159v117q0 18 19 19h32q18 0 19 -19v-119q0 -160 -154 -215q-16 -6 -22 8z" />
<glyph unicode="-" horiz-adv-x="956" d="M184 582v22q0 18 19 19h551q18 0 18 -19v-22q0 -18 -18 -19h-551q-19 1 -19 19z" />
<glyph unicode="." horiz-adv-x="417" d="M174 18v156q0 18 19 19h32q18 0 19 -19v-156q0 -18 -19 -18h-32q-19 0 -19 18z" />
<glyph unicode="/" horiz-adv-x="757" d="M113 -285l460 1698q6 18 23 19h37q18 0 14 -19l-463 -1698q-6 -18 -22 -18h-37q-16 0 -12 18z" />
<glyph unicode="0" d="M152 262v868q0 133 85 206t306 73t306 -72.5t85 -206.5v-868q0 -133 -85 -205.5t-306 -72.5t-306 72.5t-85 205.5zM221 270q0 -109 68.5 -167t253 -58t253 57.5t68.5 167.5v852q0 111 -68.5 168.5t-253 57.5t-253 -58.5t-68.5 -167.5v-852z" />
<glyph unicode="1" d="M160 18v25q0 18 18 18h354v1254l-352 -98q-18 -8 -18 12v26q0 18 18 23l404 117q18 4 18 -15v-1319h356q16 0 17 -18v-25q0 -18 -17 -18h-780q-18 0 -18 18z" />
<glyph unicode="2" d="M176 1018v112q0 133 82 206t301 73q221 0 304 -72.5t83 -206.5v-266q0 -94 -58.5 -146t-119.5 -69l-350 -92q-158 -39 -158 -149v-347h672q18 0 18 -18v-25q0 -18 -18 -18h-723q-18 0 -19 18v404q0 139 187 186l360 97q27 8 54.5 21t56.5 50t29 86v262q0 109 -67 166.5 t-251 57.5q-182 0 -248.5 -57.5t-66.5 -166.5v-106q0 -18 -17 -19h-32q-19 1 -19 19z" />
<glyph unicode="3" d="M145 256v33q0 18 17 18h33q18 0 18 -18v-27q0 -106 69.5 -162.5t248 -56.5t247 56.5t68.5 162.5v242q0 109 -60.5 161t-244.5 52h-199q-18 0 -18 18v25q0 18 18 18h188q182 0 244 51.5t62 161.5v139q0 106 -65.5 163t-240.5 57q-176 0 -241.5 -56.5t-65.5 -163.5v-26 q0 -18 -18 -19h-33q-16 0 -16 19v33q0 131 81.5 201.5t292.5 70.5t292 -70.5t81 -201.5v-152q0 -100 -39 -156.5t-149 -78.5q117 -23 158.5 -81.5t41.5 -160.5v-252q0 -131 -85 -201.5t-300 -70.5t-300 70.5t-85 201.5z" />
<glyph unicode="4" d="M113 498v22q0 4 4 17l319 837q6 18 23 19h35q20 0 12 -19l-320 -833h637v833q0 18 19 19h32q18 0 19 -19v-1356q0 -18 -19 -18h-32q-18 0 -19 18v461h-692q-18 1 -18 19z" />
<glyph unicode="5" d="M180 256v33q0 18 19 18h32q18 0 19 -18v-27q0 -111 59.5 -165t237.5 -54q180 0 239.5 54.5t59.5 164.5v309q0 190 -305 191h-320q-18 0 -18 18v594q0 18 18 19h645q18 0 19 -19v-24q0 -18 -19 -19h-594v-508h269q180 0 277 -62.5t97 -182.5v-322q0 -133 -77.5 -202.5 t-290.5 -69.5t-290 69.5t-77 202.5z" />
<glyph unicode="6" d="M164 262v885q0 262 381 262q375 0 375 -262v-29q0 -16 -17 -16h-33q-18 0 -18 16v23q0 209 -307 209q-178 0 -245 -57.5t-67 -151.5v-449q61 125 322 125q217 0 299 -72.5t82 -205.5v-277q0 -133 -83 -205.5t-304 -72.5q-219 0 -302 72.5t-83 205.5zM233 268 q0 -111 67 -168t249 -57q184 0 250.5 57.5t66.5 167.5v264q0 111 -66.5 168.5t-250.5 57.5q-174 0 -245 -55.5t-71 -153.5v-281z" />
<glyph unicode="7" d="M119 1350v24q0 18 18 19h811q18 0 19 -19v-20q0 -4 -6 -23l-539 -1313q-8 -18 -23 -18h-41q-23 0 -14 18l543 1313h-750q-18 1 -18 19z" />
<glyph unicode="8" d="M160 262v242q0 102 46 163.5t169 84.5q-117 20 -160 82.5t-43 164.5v131q0 66 14.5 112t51 86t113.5 60.5t192 20.5q219 0 295.5 -71.5t76.5 -207.5v-131q0 -102 -43 -164.5t-163 -82.5q125 -23 172 -85.5t47 -162.5v-242q0 -133 -82 -205.5t-303 -72.5t-302 72.5 t-81 205.5zM229 268q0 -111 65.5 -168t248.5 -57q184 0 249.5 57.5t65.5 167.5v230q0 109 -65.5 166t-249.5 57q-182 0 -248 -57.5t-66 -165.5v-230zM240 1006q0 -113 60 -169.5t242.5 -56.5t243 56.5t60.5 169.5v118q0 113 -60.5 169.5t-243 56.5t-242.5 -56.5t-60 -169.5 v-118z" />
<glyph unicode="9" d="M150 854v276q0 133 82.5 206t304 73t303.5 -72.5t82 -206.5v-884q0 -262 -379 -262q-377 0 -377 262v28q0 16 18 17h33q18 0 19 -17v-22q0 -92 64.5 -150.5t242.5 -58.5t243.5 57.5t65.5 151.5v446q-61 -123 -322 -123q-217 0 -298.5 73t-81.5 206zM219 860 q0 -111 66.5 -168t251.5 -57q176 0 245.5 55t69.5 156v278q0 111 -66.5 168.5t-248.5 57.5q-184 0 -251 -57.5t-67 -168.5v-264z" />
<glyph unicode=":" horiz-adv-x="417" d="M174 18v156q0 18 19 19h32q18 0 19 -19v-156q0 -18 -19 -18h-32q-19 0 -19 18zM174 831v156q0 18 19 19h32q18 0 19 -19v-156q0 -18 -19 -18h-32q-19 0 -19 18z" />
<glyph unicode=";" horiz-adv-x="528" d="M170 -127q-6 16 10 25q106 51 107 159v117q0 18 18 19h33q16 0 16 -19v-119q0 -80 -34.5 -131t-116.5 -84q-16 -6 -23 8zM287 831v156q0 18 18 19h33q16 0 16 -19v-156q0 -18 -16 -18h-33q-18 0 -18 18z" />
<glyph unicode="&#x3c;" horiz-adv-x="1122" d="M184 680v35q0 12 19 20l717 334q18 8 18 -12v-35q0 -14 -18 -21l-664 -303l664 -303q18 -10 18 -20v-35q0 -20 -18 -12l-717 331q-19 11 -19 21z" />
<glyph unicode="=" horiz-adv-x="1212" d="M186 512v25q0 16 17 16h807q16 0 16 -16v-25q0 -18 -16 -18h-807q-17 0 -17 18zM186 846v22q0 18 17 19h807q16 0 16 -19v-22q0 -18 -16 -19h-807q-17 1 -17 19z" />
<glyph unicode="&#x3e;" horiz-adv-x="1122" d="M186 340v35q0 14 17 20l665 303l-665 301q-16 6 -17 21v37q0 18 17 12l717 -332q18 -8 18 -20v-37q0 -12 -18 -21l-717 -333q-17 -6 -17 14z" />
<glyph unicode="?" horiz-adv-x="1163" d="M182 1018v112q0 131 89 205t310.5 74t310.5 -73.5t89 -205.5v-190q0 -158 -158 -235l-104 -54q-111 -57 -111 -164v-159q0 -18 -18 -19h-35q-16 0 -16 19v172q0 131 139 200l115 60q119 59 118 180v184q0 106 -72.5 165t-256.5 59q-186 0 -259 -58.5t-73 -165.5v-106 q0 -18 -17 -19h-32q-19 1 -19 19zM539 18v156q0 18 16 19h35q18 0 18 -19v-156q0 -18 -18 -18h-35q-16 0 -16 18z" />
<glyph unicode="@" horiz-adv-x="1624" d="M209 84v862q0 141 132 220t470 79q231 0 369.5 -42t185.5 -103.5t47 -153.5v-645q0 -233 -201 -233q-156 0 -184 133q-170 -133 -334 -133q-231 0 -231 198q0 16 2 39l39 393q25 242 272 242q156 0 299 -127l12 92q2 18 21 19h27q16 0 14 -19l-59 -596q-10 -86 22.5 -136 t104.5 -50q131 0 131 184v639q0 115 -121 177.5t-416 62.5q-535 0 -535 -240v-860q0 -115 121 -177.5t414 -62.5h387q18 0 19 -18v-23q0 -18 -19 -18h-387q-231 0 -369.5 42t-185.5 103.5t-47 151.5zM530 289q0 -72 45.5 -115t137.5 -43q145 0 307 125q0 27 2 43l45 453 q-133 127 -283 127q-195 0 -213 -189l-36 -354q-5 -33 -5 -47z" />
<glyph unicode="A" horiz-adv-x="1046" d="M59 18l422 1356q6 18 25 19h35q16 0 22 -19l424 -1356q1 -4 2 -7q0 -11 -16 -11h-35q-14 0 -20 18l-138 431h-520l-133 -431q-6 -18 -23 -18h-30q-16 0 -16 11q0 3 1 7zM279 508h485l-195 625q-41 129 -49 178q0 -2 -7 -35t-17.5 -74t-18.5 -63z" />
<glyph unicode="B" horiz-adv-x="1179" d="M209 18v1356q0 18 18 19h340q225 0 318.5 -73t93.5 -202v-143q0 -193 -203 -248q254 -43 254 -254v-197q0 -276 -412 -276h-391q-18 0 -18 18zM279 59h339q344 0 345 226v186q0 221 -345 221h-339v-633zM279 752h315q317 0 317 223v137q0 221 -344 221h-288v-581z" />
<glyph unicode="C" horiz-adv-x="1110" d="M186 262v868q0 131 89.5 205t312.5 74q225 0 315 -73.5t90 -205.5v-108q0 -18 -18 -18h-33q-16 0 -16 18v100q0 109 -75 167.5t-261.5 58.5t-261 -58.5t-74.5 -167.5v-852q0 -109 74.5 -167t261 -58t261.5 58.5t75 166.5v125q0 16 16 17h33q18 0 18 -17v-133 q0 -131 -90 -204.5t-315 -73.5q-223 0 -312.5 73.5t-89.5 204.5z" />
<glyph unicode="D" horiz-adv-x="1218" d="M209 18v1356q0 18 16 19h396q412 0 411 -279v-835q0 -279 -411 -279h-394q-18 0 -18 18zM279 61h342q342 0 342 226v819q0 225 -342 225h-342v-1270z" />
<glyph unicode="E" horiz-adv-x="1087" d="M209 18v1356q0 18 18 19h699q18 0 18 -19v-24q0 -18 -18 -19h-647v-565h608q18 0 18 -18v-25q0 -18 -18 -18h-608v-644h673q18 0 19 -18v-25q0 -18 -19 -18h-727q-16 0 -16 18z" />
<glyph unicode="F" horiz-adv-x="1091" d="M209 18v1356q0 18 18 19h754q18 0 18 -19v-24q0 -18 -18 -19h-702v-571h663q18 0 19 -19v-24q0 -18 -19 -19h-663v-680q0 -18 -19 -18h-33q-18 0 -18 18z" />
<glyph unicode="G" horiz-adv-x="1144" d="M186 262v868q0 131 89.5 205t312.5 74q225 0 315 -73.5t90 -205.5v-106q0 -18 -18 -18h-33q-16 0 -16 18v98q0 109 -75 167.5t-261.5 58.5t-261 -58.5t-74.5 -167.5v-852q0 -109 74.5 -167t261.5 -58q184 0 260 57.5t76 163.5v307h-318q-16 0 -16 19v24q0 18 16 19h367 q18 0 18 -19v-354q0 -131 -90 -204.5t-315 -73.5q-223 0 -312.5 73.5t-89.5 204.5z" />
<glyph unicode="H" horiz-adv-x="1241" d="M209 18v1356q0 18 18 19h33q18 0 19 -19v-594h684v594q0 18 18 19h35q16 0 16 -19v-1356q0 -18 -16 -18h-35q-18 0 -18 18v703h-684v-703q0 -18 -19 -18h-33q-18 0 -18 18z" />
<glyph unicode="I" horiz-adv-x="487" d="M209 18v1356q0 18 18 19h33q18 0 19 -19v-1356q0 -18 -19 -18h-33q-18 0 -18 18z" />
<glyph unicode="J" horiz-adv-x="995" d="M78 262v74q0 18 18 18h33q18 0 18 -18v-66q0 -109 62.5 -167t228.5 -58t228.5 58.5t62.5 166.5v1104q0 18 16 19h35q18 0 19 -19v-1112q0 -133 -79 -205.5t-281.5 -72.5t-281.5 72.5t-79 205.5z" />
<glyph unicode="K" horiz-adv-x="1083" d="M209 18v1356q0 18 18 19h33q18 0 19 -19v-647h77l539 649q16 16 33 17h39q23 0 8 -19l-557 -669l616 -687q4 -4 4 -8q0 -2 -1 -4q-3 -6 -11 -6h-47q-16 0 -31 18l-592 654h-77v-654q0 -18 -19 -18h-33q-18 0 -18 18z" />
<glyph unicode="L" horiz-adv-x="1019" d="M209 18v1356q0 18 18 19h35q16 0 17 -19v-1313h641q18 0 18 -18v-25q0 -18 -18 -18h-695q-16 0 -16 18z" />
<glyph unicode="M" horiz-adv-x="1462" d="M209 18v1356q0 18 18 19h29q14 0 18 -11l428 -1015l29 -84q0 12 31 84l422 1015q4 10 18 11h33q18 0 18 -19v-1356q0 -18 -18 -18h-33q-18 0 -18 18v1217l-31 -88l-381 -916q-6 -18 -22 -18h-37q-16 0 -25 18l-387 924q-12 29 -27 80v-1217q0 -18 -18 -18h-29 q-18 0 -18 18z" />
<glyph unicode="N" horiz-adv-x="1239" d="M209 18v1356q0 18 18 19h29q10 0 16 -9l635 -1132l58 -111v1233q0 18 18 19h31q16 0 16 -19v-1356q0 -18 -16 -18h-31q-10 0 -16 8l-631 1129q-55 94 -62 114v-1233q0 -18 -18 -18h-29q-18 0 -18 18z" />
<glyph unicode="O" horiz-adv-x="1193" d="M186 262v868q0 279 410 279q412 0 412 -279v-868q0 -279 -412 -278q-410 -1 -410 278zM254 270q0 -225 342 -225t342 225v852q0 225 -342 225.5t-342 -225.5v-852z" />
<glyph unicode="P" horiz-adv-x="1144" d="M209 18v1356q0 18 16 19h391q414 0 414 -279v-270q0 -131 -93 -205t-321 -74h-337v-547q0 -18 -19 -18h-33q-18 0 -18 18zM279 627h337q344 0 345 223v256q0 106 -78 165.5t-267 59.5h-337v-704z" />
<glyph unicode="Q" horiz-adv-x="1191" d="M186 262v868q0 279 410 279q412 0 412 -279v-868q0 -248 -320 -274l311 -287q14 -12 2 -25l-18 -20q-6 -6 -12 -6l-13 6l-354 328h-8q-410 -1 -410 278zM254 268q0 -225 342 -225t342 225v856q0 225 -342 225.5t-342 -225.5v-856z" />
<glyph unicode="R" horiz-adv-x="1198" d="M209 18v1356q0 18 16 19h391q414 0 414 -279v-248q0 -227 -270 -270l293 -578q2 -5 2 -8q0 -10 -19 -10h-35q-14 0 -24 18l-287 572q-25 -2 -74 -2h-337v-570q0 -18 -19 -18h-33q-18 0 -18 18zM279 649h337q344 0 345 223v234q0 106 -78 165.5t-267 59.5h-337v-682z" />
<glyph unicode="S" horiz-adv-x="1148" d="M168 262v100q0 18 18 19h33q18 0 19 -19v-94q0 -106 76.5 -164.5t263 -58.5t264.5 58.5t78 164.5v166q0 135 -168 201l-396 151q-72 27 -123 87.5t-51 150.5v106q0 131 88 205t309.5 74t310.5 -73.5t89 -205.5v-104q0 -18 -18 -18h-33q-18 0 -19 18v98q0 109 -72.5 166.5 t-254.5 57.5q-186 0 -259 -57.5t-73 -166.5v-90q0 -133 141 -188l402 -154q197 -78 196 -248v-182q0 -279 -411 -278q-410 -1 -410 278z" />
<glyph unicode="T" horiz-adv-x="976" d="M45 1350v24q0 18 18 19h850q18 0 19 -19v-24q0 -18 -19 -19h-391v-1313q0 -18 -16 -18h-35q-18 0 -18 18v1313h-390q-18 1 -18 19z" />
<glyph unicode="U" horiz-adv-x="1216" d="M197 262v1112q0 18 18 19h35q16 0 16 -19v-1104q0 -225 342 -225t342 225v1104q0 18 19 19h35q16 0 16 -19v-1112q0 -279 -411.5 -279t-411.5 279z" />
<glyph unicode="V" horiz-adv-x="1046" d="M59 1374q-1 4 -1 8q0 11 16 11h35q16 0 22 -19l348 -1114l43 -170q27 102 45 164l351 1120q6 18 20 19h35q16 0 16 -11q0 -3 -2 -8l-424 -1356q-6 -18 -22 -18h-35q-18 0 -25 18z" />
<glyph unicode="W" horiz-adv-x="1597" d="M57 1374q-1 4 -1 7q0 11 18 12h32q16 0 23 -19l285 -1118l30 -137l7 24q4 25 12 56.5t14 56.5l287 1118q6 18 20 19h33q14 0 21 -19l286 -1118l31 -137q14 72 31 137l289 1118q6 18 20 19h31q16 0 16 -11q0 -3 -2 -8l-346 -1356q-6 -18 -23 -18h-34q-16 0 -23 18 l-289 1133q-20 72 -26 119q0 -2 -4 -19.5t-10.5 -46t-12.5 -53.5l-289 -1133q-6 -18 -22 -18h-35q-16 0 -23 18z" />
<glyph unicode="X" horiz-adv-x="1103" d="M104 18l404 687l-397 669q-4 4 -4.5 8t3 7.5t9.5 3.5h43q16 0 26 -19l367 -610l350 610q8 18 27 19h39q20 0 8 -19l-389 -672l409 -684q3 -6 4 -10q0 -8 -14 -8h-41q-18 0 -28 18l-373 623l-367 -623q-10 -18 -26 -18h-39q-14 0 -14 8q0 4 3 10z" />
<glyph unicode="Y" horiz-adv-x="1026" d="M49 1374q-2 5 -2 9q0 9 14 10h39q14 0 23 -19l362 -667l29 -62q16 39 29 62l364 667q10 18 23 19h33q15 0 15 -9q0 -4 -3 -10l-426 -786v-570q0 -18 -19 -18h-32q-18 0 -19 18v564z" />
<glyph unicode="Z" horiz-adv-x="1036" d="M125 18v25q0 8 6 20l686 1268h-637q-18 0 -18 19v24q0 18 18 19h707q18 0 18 -19v-24q0 -8 -4 -17l-692 -1272h709q18 0 18 -18v-25q0 -18 -18 -18h-775q-18 0 -18 18z" />
<glyph unicode="[" horiz-adv-x="716" d="M207 -414v1827q0 18 18 19h332q16 0 16 -19v-24q0 -18 -16 -19h-281v-1741h281q16 0 16 -18v-25q0 -18 -16 -18h-332q-18 0 -18 18z" />
<glyph unicode="\" horiz-adv-x="757" d="M113 1413q-6 18 12 19h37q18 0 22 -19l463 -1698q4 -18 -14 -18h-37q-16 0 -23 18z" />
<glyph unicode="]" horiz-adv-x="716" d="M141 -389q0 18 19 18h280v1741h-280q-18 0 -19 19v24q0 18 19 19h332q18 0 18 -19v-1827q0 -18 -18 -18h-332q-18 0 -19 18v25z" />
<glyph unicode="^" horiz-adv-x="1116" d="M188 657l332 717q8 18 21 19h34q10 0 21 -19l334 -717q8 -18 -12 -18h-35q-14 0 -23 18l-303 664l-301 -664q-8 -18 -20 -18h-35q-21 0 -13 18z" />
<glyph unicode="_" horiz-adv-x="860" d="M49 -205q0 18 17 19h727q18 0 18 -19v-22q0 -18 -18 -19h-727q-16 0 -17 19v22z" />
<glyph unicode="`" horiz-adv-x="698" d="M233 1432q-14 18 9 18h39q12 0 22 -14l160 -248q10 -16 -8 -17h-31q-14 0 -21 11z" />
<glyph unicode="a" horiz-adv-x="1019" d="M145 217v109q0 104 62.5 167.5t179.5 63.5h393v221q0 88 -60.5 137.5t-216 49.5t-217 -48.5t-61.5 -136.5v-37q0 -18 -18 -18h-29q-18 0 -18 18v39q0 115 76.5 177.5t267 62.5t267.5 -62.5t77 -177.5v-764q0 -18 -19 -18h-26q-18 0 -19 18l-4 93q-160 -127 -358 -127 q-139 0 -208 63.5t-69 169.5zM211 223q0 -82 55.5 -131t165.5 -49q193 0 348 129v328h-383q-90 0 -138 -49.5t-48 -131.5v-96z" />
<glyph unicode="b" horiz-adv-x="1054" d="M186 18v1395q0 18 17 19h33q18 0 18 -19v-518q160 127 360 127q139 0 209 -64.5t70 -175.5v-559q0 -109 -69.5 -174t-209.5 -65q-203 0 -362 127l-4 -93q0 -18 -17 -18h-28q-17 0 -17 18zM254 174q164 -129 348 -129q111 0 167 51t56 135v545q0 82 -56 133.5t-167 51.5 q-190 0 -348 -132v-655z" />
<glyph unicode="c" horiz-adv-x="964" d="M162 223v559q0 115 76.5 177.5t267 62.5t268.5 -62.5t78 -177.5v-41q0 -18 -18 -18h-31q-18 0 -19 18v37q0 88 -60 137.5t-216 49.5t-217.5 -49.5t-61.5 -137.5v-551q0 -88 61.5 -136t217.5 -48t216 48t60 136v56q0 18 19 18h31q18 0 18 -18v-60q0 -115 -78 -177 t-268.5 -62t-267 62t-76.5 177z" />
<glyph unicode="d" horiz-adv-x="1054" d="M162 223v559q0 111 68.5 175.5t207.5 64.5q197 0 363 -127v518q0 18 16 19h33q18 0 18 -19v-1395q0 -18 -18 -18h-27q-18 0 -18 18l-4 93q-160 -127 -363 -127q-139 0 -207.5 64t-68.5 175zM229 231q0 -84 55.5 -135t166.5 -51q184 0 350 129v655q-158 131 -350 132 q-111 0 -166.5 -51.5t-55.5 -133.5v-545z" />
<glyph unicode="e" horiz-adv-x="999" d="M162 223v559q0 115 80 177.5t270 62.5t269 -62.5t79 -177.5v-256q0 -18 -16 -18h-615v-281q0 -88 63.5 -137t219.5 -49t219.5 49t63.5 137v52q0 18 18 18h29q18 0 18 -18v-56q0 -115 -80 -177t-270 -62q-348 -1 -348 239zM229 563h566v217q0 184 -283 184.5t-283 -184.5 v-217z" />
<glyph unicode="f" horiz-adv-x="626" d="M68 963v18q0 18 16 18l115 5h24v198q0 115 80 177.5t270 62.5h9q16 0 16 -19v-22q0 -18 -16 -19h-9q-156 0 -219 -49t-63 -137v-192h254q18 0 18 -19v-22q0 -18 -18 -19h-254v-926q0 -18 -19 -18h-30q-18 0 -19 18v926h-139q-16 1 -16 19z" />
<glyph unicode="g" horiz-adv-x="1054" d="M162 223v559q0 111 68.5 175.5t207.5 64.5q207 0 363 -129l4 94q0 18 18 19h27q18 0 18 -19v-1175q0 -115 -79.5 -177.5t-270.5 -62.5h-272q-18 0 -19 16v25q0 18 19 18h272q156 0 219.5 48.5t63.5 136.5v293q-164 -125 -363 -125q-139 0 -207.5 64t-68.5 175zM229 231 q0 -84 55.5 -135t166.5 -51q184 0 350 129v655q-158 131 -350 132q-111 0 -166.5 -51.5t-55.5 -133.5v-545z" />
<glyph unicode="h" horiz-adv-x="1064" d="M186 18v1395q0 18 17 19h33q18 0 18 -19v-518q154 127 360 127q139 0 209 -63.5t70 -172.5v-768q0 -18 -19 -18h-32q-16 0 -17 18v758q0 84 -55 134.5t-168 50.5q-193 0 -348 -130v-813q0 -18 -18 -18h-33q-17 0 -17 18z" />
<glyph unicode="i" horiz-adv-x="438" d="M186 18v969q0 18 17 19h33q18 0 18 -19v-969q0 -18 -18 -18h-33q-17 0 -17 18zM186 1214v199q0 18 17 19h33q18 0 18 -19v-199q0 -18 -18 -18h-33q-17 0 -17 18z" />
<glyph unicode="j" horiz-adv-x="438" d="M-123 -387q0 18 19 18h8q156 0 219 48.5t63 136.5v1171q0 18 17 19h33q18 0 18 -19v-1175q0 -115 -80 -177.5t-270 -62.5h-8q-18 0 -19 16v25zM186 1214v199q0 18 17 19h33q18 0 18 -19v-199q0 -18 -18 -18h-33q-17 0 -17 18z" />
<glyph unicode="k" horiz-adv-x="899" d="M184 18v1395q0 18 19 19h33q18 0 18 -19v-817h82l401 393q16 16 31 17h39q10 0 13 -5.5t-5 -13.5l-422 -416l479 -553q3 -3 4 -8q0 -10 -10 -10h-41q-18 0 -32 18l-457 521h-82v-521q0 -18 -18 -18h-33q-19 0 -19 18z" />
<glyph unicode="l" horiz-adv-x="438" d="M186 18v1395q0 18 17 19h33q18 0 18 -19v-1395q0 -18 -18 -18h-33q-17 0 -17 18z" />
<glyph unicode="m" horiz-adv-x="1681" d="M186 18v969q0 18 17 19h28q16 0 17 -19l2 -92q154 127 352 127q205 0 262 -139q160 139 365 139q139 0 208.5 -63.5t69.5 -172.5v-768q0 -18 -18 -18h-31q-18 0 -18 18v758q0 84 -55.5 134.5t-167.5 50.5q-195 0 -343 -134q6 -25 7 -51v-758q0 -18 -19 -18h-33 q-16 0 -16 18v758q0 84 -55.5 134.5t-167.5 50.5q-193 0 -336 -130v-813q0 -18 -18 -18h-33q-17 0 -17 18z" />
<glyph unicode="n" horiz-adv-x="1064" d="M186 18v969q0 18 17 19h28q16 0 17 -19l4 -94q156 129 362 129q139 0 209 -63.5t70 -172.5v-768q0 -18 -19 -18h-32q-16 0 -17 18v758q0 84 -55 134.5t-168 50.5q-193 0 -348 -130v-813q0 -18 -18 -18h-33q-17 0 -17 18z" />
<glyph unicode="o" horiz-adv-x="1030" d="M162 223v559q0 240 352 240q354 0 354 -240v-559q0 -240 -354 -239q-352 -1 -352 239zM229 227q0 -184 285 -184q287 0 287 184v551q0 186 -287 187q-285 0 -285 -187v-551z" />
<glyph unicode="p" horiz-adv-x="1054" d="M186 -412v1399q0 18 17 19h28q16 0 17 -19l4 -94q156 129 362 129q139 0 209 -64.5t70 -175.5v-559q0 -109 -69.5 -174t-209.5 -65q-203 0 -360 125v-521q0 -16 -18 -16h-33q-17 0 -17 16zM254 174q164 -129 348 -129q111 0 167 51t56 135v545q0 82 -56 133.5t-167 51.5 q-190 0 -348 -132v-655z" />
<glyph unicode="q" horiz-adv-x="1054" d="M162 223v559q0 111 68.5 175.5t207.5 64.5q207 0 363 -129l4 94q0 18 18 19h27q18 0 18 -19v-1399q0 -16 -18 -16h-33q-16 0 -16 16v521q-164 -125 -363 -125q-139 0 -207.5 64t-68.5 175zM229 231q0 -84 55.5 -135t166.5 -51q184 0 350 129v655q-158 131 -350 132 q-111 0 -166.5 -51.5t-55.5 -133.5v-545z" />
<glyph unicode="r" horiz-adv-x="673" d="M186 18v969q0 18 17 19h28q16 0 17 -19l6 -117q182 152 356 152q18 0 19 -18v-29q0 -18 -19 -19q-102 0 -199.5 -48t-156.5 -99v-791q0 -18 -18 -18h-33q-17 0 -17 18z" />
<glyph unicode="s" horiz-adv-x="946" d="M133 195v59q0 16 19 16h30q16 0 17 -16v-57q0 -72 70.5 -115t212 -43t213 43t71.5 115v106q0 98 -135 137l-326 99q-59 18 -109.5 68t-50.5 120v86q0 94 82 151.5t252 57.5t253 -57.5t83 -151.5v-72q0 -14 -18 -14h-31q-14 0 -14 14v72q0 72 -68 114t-205 42 q-268 0 -268 -156v-76q0 -53 39 -90t88 -51l326 -98q74 -23 120.5 -69t46.5 -112v-122q0 -94 -88 -152.5t-262 -58.5t-261 58.5t-87 152.5z" />
<glyph unicode="t" horiz-adv-x="692" d="M66 963v18q0 18 18 18l113 5h24v227q0 18 17 18h32q18 0 19 -18v-227h256q18 0 18 -19v-22q0 -18 -18 -19h-256v-698q0 -90 62.5 -138.5t217.5 -48.5h29q18 0 18 -18v-23q0 -18 -18 -18h-35q-190 0 -266 61.5t-76 178.5v704h-137q-18 1 -18 19z" />
<glyph unicode="u" horiz-adv-x="1052" d="M174 219v768q0 18 16 19h33q18 0 19 -19v-756q0 -86 54 -136t167 -50q190 0 338 129v813q0 18 16 19h33q18 0 18 -19v-969q0 -18 -18 -18h-27q-18 0 -18 18l-4 93q-147 -127 -350 -127q-137 0 -207 63t-70 172z" />
<glyph unicode="v" horiz-adv-x="835" d="M47 987q-2 5 -2 9q0 9 14 10h37q14 0 21 -19l276 -803l27 -88q0 23 24 88l277 803q6 18 20 19h35q15 0 15 -10q0 -4 -3 -9l-333 -969q-6 -18 -21 -18h-37q-12 0 -18 18z" />
<glyph unicode="w" horiz-adv-x="1271" d="M47 987q-4 18 14 19h35q14 0 21 -19l219 -813l18 -78q0 10 21 78l223 813q6 18 20 19h44q16 0 22 -19l217 -813l19 -72q0 12 18 72l223 813q6 18 21 19h30q16 0 13 -19l-269 -969q-6 -18 -20 -18h-37q-14 0 -20 18l-220 811q-12 35 -22 91q0 -2 -9 -39l-14 -54l-229 -809 q-6 -18 -20 -18h-35q-14 0 -21 18z" />
<glyph unicode="x" horiz-adv-x="935" d="M88 18l336 492l-330 477q-12 18 8 19h43q16 0 27 -19l297 -426l289 426q10 18 26 19h35q23 0 10 -19l-325 -479l342 -490q3 -6 3 -9q0 -9 -15 -9h-37q-18 0 -29 18l-307 441l-299 -441q-10 -18 -29 -18h-33q-15 0 -15 9q0 3 3 9z" />
<glyph unicode="y" horiz-adv-x="835" d="M47 987q-2 5 -2 9q0 9 14 10h35q16 0 23 -19l276 -803l27 -90q12 57 24 90l277 803q6 18 20 19h35q15 0 15 -10q0 -4 -3 -9l-479 -1399q-8 -18 -20 -18h-29q-20 0 -12 18l137 414z" />
<glyph unicode="z" horiz-adv-x="937" d="M115 18v23q0 8 8 22l573 883h-540q-18 0 -19 19v24q0 16 19 17h610q18 0 18 -17v-20q0 -12 -4 -19l-579 -891h590q18 0 18 -18v-23q0 -18 -18 -18h-658q-18 0 -18 18z" />
<glyph unicode="{" horiz-adv-x="915" d="M121 496v24q0 18 18 19h2q258 0 258 186v485q0 240 349 240h10q16 0 16 -18v-23q0 -18 -16 -18h-10q-154 0 -216.5 -48.5t-62.5 -138.5v-485q0 -174 -190 -211q190 -37 190 -209v-500q0 -90 62.5 -138t216.5 -48h10q16 0 16 -19v-22q0 -18 -16 -18h-10q-348 0 -349 239 v502q0 184 -258 184h-2q-18 1 -18 17z" />
<glyph unicode="|" horiz-adv-x="487" d="M209 -414v1827q0 18 18 19h35q16 0 17 -19v-1827q0 -18 -17 -18h-35q-18 0 -18 18z" />
<glyph unicode="}" horiz-adv-x="915" d="M139 -406q0 18 19 19h8q156 0 218 48t62 138v500q0 172 189 209q-188 37 -189 211v485q0 90 -62 138.5t-218 48.5h-8q-18 0 -19 18v23q0 18 19 18h8q190 0 270 -62.5t80 -177.5v-485q0 -186 258 -186h2q18 0 19 -19v-24q0 -16 -19 -17h-2q-258 0 -258 -184v-502 q0 -115 -80 -177t-270 -62h-8q-18 0 -19 18v22z" />
<glyph unicode="~" horiz-adv-x="974" d="M186 475v31q0 172 125 172q43 0 103 -37l166 -98q53 -29 84 -29q43 0 56 25.5t13 99.5v20q0 16 19 17h20q16 0 16 -19v-32q0 -172 -120 -172q-47 0 -111 39l-168 100q-45 25 -74 24q-43 0 -58 -25.5t-15 -98.5v-19q0 -18 -21 -18h-18q-17 0 -17 20z" />
<glyph unicode="&#xa1;" horiz-adv-x="493" d="M209 207l8 471q0 18 16 18h23q18 0 18 -18l9 -471v-576q0 -18 -19 -18h-37q-18 0 -18 18v576zM211 831v156q0 18 18 19h33q18 0 19 -19v-156q0 -18 -19 -18h-33q-18 0 -18 18z" />
<glyph unicode="&#xa2;" horiz-adv-x="1064" d="M188 416v559q0 109 69 170t239 67v162q0 18 18 19h33q16 0 16 -19v-162q172 -4 244 -65.5t72 -171.5v-41q0 -18 -19 -19h-31q-18 0 -18 19v37q0 88 -60.5 137t-216 49t-217 -49t-61.5 -137v-551q0 -88 61.5 -136t217 -48t216 48t60.5 136v55q0 18 18 19h31q18 0 19 -19 v-59q0 -111 -72 -172.5t-244 -67.5v-158q0 -18 -16 -18h-33q-18 0 -18 18v158q-170 8 -239 69.5t-69 170.5z" />
<glyph unicode="&#xa3;" horiz-adv-x="1325" d="M188 18v25q0 16 17 16h125v615h-125q-16 0 -17 18v25q0 16 17 16h125v416q0 131 75.5 195.5t296.5 64.5q117 0 193 -17.5t115 -54.5t53 -81t14 -107v-53q0 -18 -18 -19h-31q-18 0 -18 19v45q0 109 -61.5 158t-246.5 49q-182 0 -243.5 -49.5t-61.5 -157.5v-408h369 q18 0 18 -16v-25q0 -18 -18 -18h-369v-615h473q94 0 147.5 56.5t53.5 208.5v8q0 18 19 18h30q16 0 17 -18v-8q0 -186 -68 -255t-188 -69h-676q-17 0 -17 18z" />
<glyph unicode="&#xa4;" horiz-adv-x="1089" d="M55 571v17q0 18 19 18h114v185h-114q-18 0 -19 16v16q0 18 19 19h114v288q0 131 89.5 205t312.5 74q225 0 315 -73.5t90 -205.5v-108q0 -18 -18 -18h-33q-16 0 -16 18v100q0 109 -75 167.5t-261 58.5t-261 -58.5t-75 -167.5v-280h385q18 0 18 -19v-16q0 -16 -18 -16h-385 v-185h385q18 0 18 -18v-17q0 -16 -18 -16h-385v-285q0 -109 75 -167t261 -58t261 58.5t75 166.5v125q0 16 16 17h33q18 0 18 -17v-133q0 -131 -90 -204.5t-315 -73.5q-223 0 -312.5 73.5t-89.5 204.5v293h-114q-19 0 -19 16z" />
<glyph unicode="&#xa5;" horiz-adv-x="1310" d="M193 1374q-8 18 12 19h39q14 0 22 -19l363 -667l28 -62q16 39 29 62l365 667q10 18 22 19h33q23 0 12 -19l-276 -510h184q18 0 18 -16v-17q0 -18 -18 -18h-213l-98 -184h311q18 0 18 -17v-16q0 -18 -18 -18h-334v-560q0 -18 -18 -18h-33q-18 0 -18 18v560h-334 q-18 0 -19 18v16q0 16 19 17h307l-100 184h-207q-18 0 -19 18v17q0 16 19 16h180z" />
<glyph unicode="&#xa6;" horiz-adv-x="438" d="M186 299q0 18 17 18h33q18 0 18 -18v-713q0 -18 -18 -18h-33q-16 0 -17 18v713zM186 662v712q0 18 17 19h33q18 0 18 -19v-712q0 -18 -18 -19h-33q-17 1 -17 19z" />
<glyph unicode="&#xa7;" horiz-adv-x="1120" d="M209 -172q0 18 18 18h29q18 0 18 -18v-33q0 -184 285 -184t285 184v189q0 100 -160 143l-285 82q-63 18 -119.5 67.5t-56.5 137.5v235q0 18 17 19h30q18 0 19 -19v-231q0 -66 45 -102.5t92 -49.5l289 -84q197 -61 196 -196v-187q0 -242 -352 -241q-190 0 -270 62.5 t-80 176.5v31zM209 983v184q0 242 352 242q190 0 270 -62.5t80 -177.5v-30q0 -18 -18 -19h-29q-18 0 -18 19v32q0 184 -285 184.5t-285 -184.5v-186q0 -102 160 -145l285 -80q63 -18 119.5 -68.5t56.5 -138.5v-236q0 -18 -16 -18h-31q-16 0 -16 18v232q0 47 -30 82t-56.5 48 t-53.5 21l-288 84q-197 62 -197 199z" />
<glyph unicode="&#xa8;" horiz-adv-x="595" d="M178 1214v203q0 18 19 19h22q16 0 17 -19v-203q0 -18 -17 -18h-22q-19 0 -19 18zM358 1214v203q0 18 19 19h22q16 0 17 -19v-203q0 -18 -17 -18h-22q-19 0 -19 18z" />
<glyph unicode="&#xa9;" horiz-adv-x="1429" d="M209 285v825q0 68 20.5 118t72.5 93t155.5 65.5t257 22.5t257 -22.5t156 -65.5t73 -93t20.5 -118v-825q0 -70 -20.5 -120t-73 -93t-156 -65.5t-257 -22.5t-257 22.5t-155.5 65.5t-72.5 93t-20.5 120zM266 279q0 -117 98.5 -180.5t350.5 -63.5t350 63.5t98 180.5v835 q0 117 -98 180.5t-350 63.5t-350.5 -63.5t-98.5 -180.5v-835zM451 498v395q0 119 54 178t209.5 59t210 -59t54.5 -178v-39q0 -18 -16 -18h-29q-18 0 -19 18v37q0 94 -37.5 140t-162.5 46t-163 -45t-38 -141v-391q0 -94 38 -140.5t163 -46.5q123 0 161.5 46.5t38.5 140.5v53 q0 18 19 18h29q16 0 16 -18v-55q0 -119 -54.5 -178.5t-210 -59.5t-209.5 59.5t-54 178.5z" />
<glyph unicode="&#xaa;" horiz-adv-x="714" d="M141 926v63q0 63 39 102t111 39h227v132q0 51 -33.5 77.5t-122.5 26.5q-160 0 -159 -102v-23q0 -14 -10 -14h-29q-12 0 -12 14v23q0 145 210.5 145t210.5 -145v-455q0 -14 -12 -14h-24q-12 0 -13 14l-4 51q-92 -76 -213 -76q-166 1 -166 142zM197 932q0 -104 122 -105 q117 0 199 76v187h-219q-49 0 -75.5 -29t-26.5 -74v-55z" />
<glyph unicode="&#xab;" horiz-adv-x="1193" d="M190 487v29q0 12 17 25l383 293q6 4 12 2t6 -11v-43q0 -10 -18 -24l-340 -256l340 -256q18 -14 18 -27v-39q0 -23 -18 -8l-383 291q-17 12 -17 24zM586 487v29q0 12 16 25l383 293q6 4 12.5 2t6.5 -11v-43q0 -10 -19 -24l-340 -256l340 -256q18 -14 19 -27v-39 q0 -23 -19 -8l-383 291q-16 12 -16 24z" />
<glyph unicode="&#xac;" horiz-adv-x="749" d="M158 637q0 88 62.5 151.5t152.5 63.5t153.5 -63.5t63.5 -151.5t-63.5 -151.5t-153.5 -63.5t-152.5 63.5t-62.5 151.5z" />
<glyph unicode="&#xad;" horiz-adv-x="958" d="M186 582v22q0 18 17 19h551q18 0 18 -19v-22q0 -18 -18 -19h-551q-17 1 -17 19z" />
<glyph unicode="&#xae;" horiz-adv-x="1247" d="M209 801v358q0 250 416 250q412 0 411 -250v-358q0 -248 -411 -248q-416 0 -416 248zM264 797q0 -80 79 -137.5t282 -57.5q360 0 360 195v366q0 197 -360 197q-203 0 -282 -58.5t-79 -138.5v-366zM444 715v512q0 14 15 14h184q102 0 145 -40t43 -99v-53q0 -104 -112 -131 l88 -203q4 -12 -12 -13h-31q-10 0 -14 13l-84 194h-23h-143v-194q0 -12 -13 -13h-30q-13 1 -13 13zM500 954h139q72 0 105.5 29t33.5 70v45q0 41 -33.5 69.5t-105.5 28.5h-139v-242z" />
<glyph unicode="&#xaf;" horiz-adv-x="864" d="M145 1272v20q0 18 17 19h540q18 0 19 -19v-20q0 -18 -19 -19h-540q-17 1 -17 19z" />
<glyph unicode="&#xb0;" horiz-adv-x="794" d="M141 1032v199q0 84 58.5 129t198 45t196.5 -45t57 -129v-199q0 -174 -254 -174q-256 0 -256 174zM205 1034q0 -125 192.5 -125t192.5 125v197q0 123 -192.5 123t-192.5 -123v-197z" />
<glyph unicode="&#xb1;" horiz-adv-x="1208" d="M186 272v23q0 18 17 18h801q18 0 18 -18v-23q0 -18 -18 -18h-801q-17 0 -17 18zM186 766v25q0 16 17 16h368v285q0 18 19 18h24q16 0 17 -18v-285h373q18 0 18 -16v-25q0 -18 -18 -18h-373v-287q0 -18 -17 -19h-24q-18 0 -19 19v287h-368q-17 0 -17 18z" />
<glyph unicode="&#xb2;" horiz-adv-x="749" d="M137 1171v68q0 80 51.5 125t184.5 45t185 -45t52 -125v-156q0 -57 -33.5 -88.5t-72.5 -44.5l-213 -59q-90 -27 -90 -82v-199h399q14 0 14 -12v-20q0 -14 -14 -15h-442q-10 0 -11 15v237q0 84 109 113l219 63q80 20 80 90v150q0 63 -40 97t-142.5 34t-141 -34t-38.5 -97 v-60q0 -14 -15 -14h-28q-13 0 -13 14z" />
<glyph unicode="&#xb3;" horiz-adv-x="747" d="M137 723v20q0 12 13 13h28q14 0 15 -13v-14q0 -61 39.5 -94t142.5 -33q100 0 140 33t40 94v135q0 63 -36 94t-140 31h-115q-14 0 -14 12v19q0 14 14 14h107q106 0 141 30t35 95v78q0 63 -37 95t-135 32q-102 0 -140 -32t-38 -95v-14q0 -12 -13 -13h-28q-14 0 -15 13v20 q0 80 51.5 124t182.5 44q129 0 179 -44t50 -122v-92q0 -59 -22.5 -92t-87.5 -47q70 -14 93 -49t23 -95v-149q0 -166 -235 -166q-133 0 -185.5 44t-52.5 124z" />
<glyph unicode="&#xb4;" horiz-adv-x="698" d="M233 1188l160 248q10 14 23 14h39q20 0 10 -18l-170 -250q-10 -10 -21 -11h-32q-19 1 -9 17z" />
<glyph unicode="&#xb5;" horiz-adv-x="1052" d="M174 -410v1397q0 18 16 19h33q18 0 19 -19v-756q0 -86 54 -136t167 -50q190 0 338 129v813q0 18 16 19h33q18 0 18 -19v-969q0 -18 -18 -18h-27q-18 0 -18 18l-4 93q-147 -127 -350 -127q-156 0 -215 90l6 -484q0 -18 -19 -18h-33q-16 0 -16 18z" />
<glyph unicode="&#xb6;" horiz-adv-x="1263" d="M209 846v278q0 129 88 199t307 70h170q16 0 17 -17v-1786q0 -18 -17 -18h-35q-18 0 -18 18v988h-117q-219 0 -307 69.5t-88 198.5zM985 -410v1784q0 18 16 19h35q16 0 17 -19v-1784q0 -18 -17 -18h-35q-16 0 -16 18z" />
<glyph unicode="&#xb7;" horiz-adv-x="417" d="M174 451v155q0 18 19 19h32q18 0 19 -19v-155q0 -18 -19 -19h-32q-19 1 -19 19z" />
<glyph unicode="&#xb8;" horiz-adv-x="286" d="M-31 -399q0 18 19 18h239q43 0 79 24.5t36 84.5q0 109 -115 108h-114q-27 0 -23 23l41 145q2 14 21 14l20 -2q16 -4 10 -24l-32 -105h83q68 0 117 -36.5t49 -122.5q0 -84 -50 -122t-116 -38h-245q-18 0 -19 18v15z" />
<glyph unicode="&#xb9;" horiz-adv-x="770" d="M137 584v20q0 14 13 14h206v730l-206 -56q-12 -4 -13 11v22q0 10 13 14l251 68q12 4 13 -10v-779h207q12 0 12 -14v-20q0 -14 -12 -15h-471q-13 1 -13 15z" />
<glyph unicode="&#xba;" horiz-adv-x="716" d="M139 932v330q0 147 219.5 147t219.5 -147v-330q0 -147 -219.5 -147t-219.5 147zM195 936q0 -106 163.5 -106.5t163.5 106.5v324q0 104 -163.5 104t-163.5 -104v-324z" />
<glyph unicode="&#xbb;" horiz-adv-x="1191" d="M190 195v43q0 10 19 24l340 256l-340 256q-18 14 -19 27v39q0 23 19 8l383 -291q16 -12 16 -25v-28q0 -12 -16 -25l-383 -293q-6 -4 -12.5 -1.5t-6.5 10.5zM582 195v43q0 10 18 24l340 256l-340 256q-18 14 -18 27v39q0 23 18 8l383 -291q16 -12 16 -25v-28 q0 -12 -16 -25l-383 -293q-6 -4 -12 -1.5t-6 10.5z" />
<glyph unicode="&#xbc;" horiz-adv-x="1640" d="M137 584v20q0 14 13 14h206v725l-206 -51q-12 -4 -13 11v22q0 10 13 14l251 68q12 4 13 -10v-779h207q12 0 12 -14v-20q0 -14 -12 -15h-471q-13 1 -13 15zM627 -86l422 1567q4 12 18 12h31q12 0 8 -12l-424 -1567q-2 -14 -14 -14h-31q-14 0 -10 14zM1022 295v16q0 4 6 23 l182 487q6 14 19 15h31q14 0 8 -15l-185 -493h363v493q0 14 14 15h29q14 0 14 -15v-807q0 -14 -14 -14h-29q-14 0 -14 14v269h-410q-14 0 -14 12z" />
<glyph unicode="&#xbd;" horiz-adv-x="1685" d="M137 584v20q0 14 13 14h206v728l-206 -54q-12 -4 -13 11v22q0 10 13 14l251 68q12 4 13 -10v-779h207q12 0 12 -14v-20q0 -14 -12 -15h-471q-13 1 -13 15zM614 -86l424 1567q2 12 17 12h32q10 0 7 -12l-422 -1567q-2 -14 -15 -14h-30q-17 0 -13 14zM1073 608v68 q0 80 51.5 125t184.5 45q135 0 187 -45t52 -125v-156q0 -100 -108 -133l-211 -59q-90 -27 -90 -82v-199h399q12 0 12 -12v-21q0 -14 -12 -14h-442q-10 0 -11 14v238q0 84 107 113l219 63q82 20 82 90v150q0 63 -40 97t-144 34q-102 0 -141.5 -34t-39.5 -97v-60 q0 -14 -12 -14h-29q-14 0 -14 14z" />
<glyph unicode="&#xbe;" horiz-adv-x="1632" d="M137 721v20q0 12 13 13h28q14 0 15 -13v-14q0 -61 39.5 -94t142.5 -33q100 0 140 33t40 94v135q0 63 -36 94t-140 31h-115q-14 0 -14 12v19q0 14 14 14h107q106 0 141 30t35 95v78q0 63 -37 95t-135 32q-102 0 -140 -32t-38 -95v-14q0 -12 -13 -13h-28q-14 0 -15 13v20 q0 80 51.5 124t182.5 44q129 0 179 -44t50 -122v-92q0 -59 -22.5 -92t-87.5 -47q70 -14 93 -49t23 -95v-149q0 -166 -235 -166q-133 0 -185.5 44t-52.5 124zM623 -86l424 1567q2 12 16 12h31q14 0 8 -12l-422 -1567q-2 -14 -16 -14h-29q-16 0 -12 14zM1016 295v16q0 4 6 23 l182 487q6 14 19 15h30q16 0 9 -15l-185 -493h363v493q0 14 14 15h29q14 0 14 -15v-807q0 -14 -14 -14h-29q-14 0 -14 14v269h-410q-14 0 -14 12z" />
<glyph unicode="&#xbf;" horiz-adv-x="1163" d="M182 66q0 156 158 235l104 53q111 57 111 164v160q0 18 18 18h35q16 0 17 -18v-172q0 -131 -140 -201l-114 -59q-119 -59 -119 -180v-185q0 -106 72.5 -164.5t257.5 -58.5q186 0 258.5 58.5t72.5 164.5v107q0 18 17 18h33q18 0 18 -18v-113q0 -131 -89 -204.5 t-310.5 -73.5t-310.5 73.5t-89 204.5v191zM555 831v156q0 18 18 19h35q16 0 17 -19v-156q0 -18 -17 -18h-35q-18 0 -18 18z" />
<glyph unicode="&#xc0;" horiz-adv-x="1046" d="M59 18l422 1356q6 18 25 19h35q16 0 22 -19l424 -1356q6 -18 -14 -18h-35q-14 0 -20 18l-138 431h-520l-133 -431q-6 -18 -23 -18h-30q-21 0 -15 18zM279 508h485l-195 625q-41 129 -49 178q0 -2 -7 -35t-17.5 -74t-18.5 -63zM317 1780q-14 18 9 18h39q16 0 22 -14 l160 -248q10 -16 -8 -16h-31q-16 0 -21 10z" />
<glyph unicode="&#xc1;" horiz-adv-x="1046" d="M59 18l422 1356q6 18 25 19h35q16 0 22 -19l424 -1356q6 -18 -14 -18h-35q-14 0 -20 18l-138 431h-520l-133 -431q-6 -18 -23 -18h-30q-21 0 -15 18zM279 508h485l-195 625q-41 129 -49 178q0 -2 -7 -35t-17.5 -74t-18.5 -63zM500 1536l159 248q10 14 23 14h39 q20 0 10 -18l-170 -250q-10 -10 -20 -10h-33q-18 0 -8 16z" />
<glyph unicode="&#xc2;" horiz-adv-x="1046" d="M59 18l422 1356q6 18 25 19h35q16 0 22 -19l424 -1356q6 -18 -14 -18h-35q-14 0 -20 18l-138 431h-520l-133 -431q-6 -18 -23 -18h-30q-21 0 -15 18zM279 508h485l-195 625q-41 129 -49 178q0 -2 -7 -35t-17.5 -74t-18.5 -63zM317 1538l162 242q14 18 29 18h27 q16 0 26 -16l164 -244q10 -18 -8 -18h-29q-12 0 -24 18l-142 211l-141 -211q-14 -18 -25 -18h-28q-21 0 -11 18z" />
<glyph unicode="&#xc3;" horiz-adv-x="1046" d="M59 18l422 1356q6 18 25 19h35q16 0 22 -19l424 -1356q6 -18 -14 -18h-35q-14 0 -20 18l-138 431h-520l-133 -431q-6 -18 -23 -18h-30q-21 0 -15 18zM258 1575v31q0 168 129 168q51 0 100 -43l97 -84q43 -35 71 -35q43 0 58.5 25.5t15.5 101.5v18q0 16 19 17h20 q16 0 16 -19v-31q-2 -168 -127 -168q-51 0 -102 43l-94 84q-43 35 -72 35q-43 0 -58.5 -25.5t-15.5 -101.5v-18q0 -18 -18 -19h-21q-18 1 -18 21zM279 508h485l-195 625q-41 129 -49 178q0 -2 -7 -35t-17.5 -74t-18.5 -63z" />
<glyph unicode="&#xc4;" horiz-adv-x="1046" d="M59 18l422 1356q6 18 25 19h35q16 0 22 -19l424 -1356q6 -18 -14 -18h-35q-14 0 -20 18l-138 431h-520l-133 -431q-6 -18 -23 -18h-30q-21 0 -15 18zM279 508h485l-195 625q-41 129 -49 178q0 -2 -7 -35t-17.5 -74t-18.5 -63zM403 1556v203q0 16 19 17h22q16 0 17 -17 v-203q0 -18 -17 -18h-22q-19 0 -19 18zM584 1556v203q0 16 18 17h23q16 0 16 -17v-203q0 -18 -16 -18h-23q-18 0 -18 18z" />
<glyph unicode="&#xc5;" horiz-adv-x="1046" d="M59 18l422 1356q6 18 25 19h35q16 0 22 -19l424 -1356q6 -18 -14 -18h-35q-14 0 -20 18l-138 431h-520l-133 -431q-6 -18 -23 -18h-30q-21 0 -15 18zM279 508h485l-195 625q-41 129 -49 178q0 -2 -7 -35t-17.5 -74t-18.5 -63zM342 1634v23q0 150 180 149.5t180 -149.5 v-23q0 -150 -180 -150t-180 150zM393 1638q0 -106 129 -106t129 106v15q0 106 -129 106t-129 -106v-15z" />
<glyph unicode="&#xc6;" horiz-adv-x="1722" d="M61 18l783 1356q8 18 24 19h693q18 0 18 -19v-22q0 -18 -18 -19h-648v-567h611q18 0 18 -18v-23q0 -18 -18 -18h-611v-648h674q18 0 19 -16v-25q0 -18 -19 -18h-713q-27 0 -26 18v431h-471l-248 -431q-10 -18 -23 -18h-30q-25 0 -15 18zM412 508h436v762 q-23 -43 -68 -121z" />
<glyph unicode="&#xc7;" horiz-adv-x="1110" d="M186 262v868q0 131 89.5 205t312.5 74q225 0 315 -73.5t90 -205.5v-108q0 -18 -18 -18h-33q-16 0 -16 18v100q0 109 -75 167.5t-261.5 58.5t-261 -58.5t-74.5 -167.5v-852q0 -109 74.5 -167t261 -58t261.5 58.5t75 166.5v125q0 16 16 17h33q18 0 18 -17v-133 q0 -131 -90 -204.5t-315 -73.5h-10l-29 -97h84q68 0 117 -36.5t49 -122.5q0 -84 -50.5 -122t-115.5 -38h-246q-18 0 -18 18v15q0 18 18 18h240q43 0 78.5 24.5t35.5 84.5q0 109 -114 108h-115q-27 0 -23 23l35 127q-186 10 -262 81.5t-76 194.5z" />
<glyph unicode="&#xc8;" horiz-adv-x="1087" d="M209 18v1356q0 18 18 19h699q18 0 18 -19v-24q0 -18 -18 -19h-647v-565h608q18 0 18 -18v-25q0 -18 -18 -18h-608v-644h673q18 0 19 -18v-25q0 -18 -19 -18h-727q-16 0 -16 18zM420 1780q-14 18 8 18h39q16 0 22 -14l160 -248q10 -16 -8 -16h-31q-16 0 -20 10z" />
<glyph unicode="&#xc9;" horiz-adv-x="1087" d="M209 18v1356q0 18 18 19h699q18 0 18 -19v-24q0 -18 -18 -19h-647v-565h608q18 0 18 -18v-25q0 -18 -18 -18h-608v-644h673q18 0 19 -18v-25q0 -18 -19 -18h-727q-16 0 -16 18zM535 1536l159 248q10 14 23 14h39q20 0 10 -18l-170 -250q-10 -10 -21 -10h-32q-18 0 -8 16z " />
<glyph unicode="&#xca;" horiz-adv-x="1087" d="M209 18v1356q0 18 18 19h699q18 0 18 -19v-24q0 -18 -18 -19h-647v-565h608q18 0 18 -18v-25q0 -18 -18 -18h-608v-644h673q18 0 19 -18v-25q0 -18 -19 -18h-727q-16 0 -16 18zM340 1538l162 242q14 18 28 18h27q16 0 27 -16l164 -244q10 -18 -9 -18h-28q-12 0 -25 18 l-141 211l-142 -211q-14 -18 -24 -18h-29q-20 0 -10 18z" />
<glyph unicode="&#xcb;" horiz-adv-x="1087" d="M209 18v1356q0 18 18 19h699q18 0 18 -19v-24q0 -18 -18 -19h-647v-565h608q18 0 18 -18v-25q0 -18 -18 -18h-608v-644h673q18 0 19 -18v-25q0 -18 -19 -18h-727q-16 0 -16 18zM463 1556v203q0 16 18 17h23q16 0 16 -17v-203q0 -18 -16 -18h-23q-18 0 -18 18zM643 1556 v203q0 16 19 17h22q16 0 16 -17v-203q0 -18 -16 -18h-22q-19 0 -19 18z" />
<glyph unicode="&#xcc;" horiz-adv-x="487" d="M39 1780q-14 18 8 18h39q16 0 23 -14l159 -248q10 -16 -8 -16h-31q-16 0 -20 10zM209 18v1356q0 18 18 19h33q18 0 19 -19v-1356q0 -18 -19 -18h-33q-18 0 -18 18z" />
<glyph unicode="&#xcd;" horiz-adv-x="487" d="M209 18v1356q0 18 18 19h33q18 0 19 -19v-1356q0 -18 -19 -18h-33q-18 0 -18 18zM217 1536l160 248q10 14 22 14h39q20 0 11 -18l-170 -250q-10 -10 -21 -10h-33q-18 0 -8 16z" />
<glyph unicode="&#xce;" horiz-adv-x="487" d="M39 1538l162 242q14 18 28 18h27q16 0 27 -16l163 -244q10 -18 -8 -18h-28q-12 0 -25 18l-141 211l-142 -211q-14 -18 -24 -18h-29q-20 0 -10 18zM209 18v1356q0 18 18 19h33q18 0 19 -19v-1356q0 -18 -19 -18h-33q-18 0 -18 18z" />
<glyph unicode="&#xcf;" horiz-adv-x="487" d="M125 1556v203q0 16 18 17h23q16 0 16 -17v-203q0 -18 -16 -18h-23q-18 0 -18 18zM209 18v1356q0 18 18 19h33q18 0 19 -19v-1356q0 -18 -19 -18h-33q-18 0 -18 18zM305 1556v203q0 16 19 17h22q16 0 16 -17v-203q0 -18 -16 -18h-22q-19 0 -19 18z" />
<glyph unicode="&#xd0;" horiz-adv-x="1218" d="M29 696v21q0 18 18 18h162v639q0 18 16 19h396q412 0 411 -279v-835q0 -279 -411 -279h-394q-18 0 -18 18v660h-162q-18 0 -18 18zM279 61h342q342 0 342 226v819q0 225 -342 225h-342v-596h319q16 0 16 -18v-21q0 -18 -16 -18h-319v-617z" />
<glyph unicode="&#xd1;" horiz-adv-x="1239" d="M209 18v1356q0 18 18 19h29q10 0 16 -9l635 -1132l58 -111v1233q0 18 18 19h31q16 0 16 -19v-1356q0 -18 -16 -18h-31q-10 0 -16 8l-631 1129q-29 47 -62 112v-1231q0 -18 -18 -18h-29q-18 0 -18 18zM356 1575v31q0 168 129 168q51 0 101 -43l96 -84q43 -35 72 -35 q43 0 58 25.5t15 101.5v18q0 16 19 17h20q16 0 17 -19v-31q-2 -168 -127 -168q-51 0 -103 43l-94 84q-43 35 -72 35q-43 0 -58 -25.5t-15 -101.5v-18q0 -18 -19 -19h-20q-19 1 -19 21z" />
<glyph unicode="&#xd2;" horiz-adv-x="1193" d="M186 262v868q0 279 410 279q412 0 412 -279v-868q0 -279 -412 -278q-410 -1 -410 278zM254 270q0 -225 342 -225t342 225v852q0 225 -342 225.5t-342 -225.5v-852zM391 1780q-14 18 8 18h39q16 0 23 -14l160 -248q10 -16 -9 -16h-30q-16 0 -21 10z" />
<glyph unicode="&#xd3;" horiz-adv-x="1193" d="M186 262v868q0 279 410 279q412 0 412 -279v-868q0 -279 -412 -278q-410 -1 -410 278zM254 270q0 -225 342 -225t342 225v852q0 225 -342 225.5t-342 -225.5v-852zM555 1536l160 248q10 14 22 14h39q20 0 10 -18l-170 -250q-10 -10 -20 -10h-33q-18 0 -8 16z" />
<glyph unicode="&#xd4;" horiz-adv-x="1193" d="M186 262v868q0 279 410 279q412 0 412 -279v-868q0 -279 -412 -278q-410 -1 -410 278zM254 270q0 -225 342 -225t342 225v852q0 225 -342 225.5t-342 -225.5v-852zM391 1538l162 242q14 18 29 18h26q16 0 27 -16l164 -244q10 -18 -8 -18h-29q-12 0 -25 18l-141 211 l-141 -211q-14 -18 -25 -18h-29q-20 0 -10 18z" />
<glyph unicode="&#xd5;" horiz-adv-x="1193" d="M186 262v868q0 279 410 279q412 0 412 -279v-868q0 -279 -412 -278q-410 -1 -410 278zM254 270q0 -225 342 -225t342 225v852q0 225 -342 225.5t-342 -225.5v-852zM332 1575v31q0 168 129 168q51 0 100 -43l96 -84q43 -35 72 -35q43 0 58.5 25.5t15.5 101.5v18 q0 16 18 17h21q16 0 16 -19v-31q-2 -168 -127 -168q-51 0 -102 43l-94 84q-43 35 -72 35q-43 0 -58.5 -25.5t-15.5 -101.5v-18q0 -18 -18 -19h-21q-18 1 -18 21z" />
<glyph unicode="&#xd6;" horiz-adv-x="1193" d="M186 262v868q0 279 410 279q412 0 412 -279v-868q0 -279 -412 -278q-410 -1 -410 278zM254 270q0 -225 342 -225t342 225v852q0 225 -342 225.5t-342 -225.5v-852zM477 1556v203q0 16 19 17h22q16 0 17 -17v-203q0 -18 -17 -18h-22q-19 0 -19 18zM657 1556v203 q0 16 19 17h22q16 0 17 -17v-203q0 -18 -17 -18h-22q-19 0 -19 18z" />
<glyph unicode="&#xd7;" horiz-adv-x="1116" d="M190 496q-8 16 7 24l319 185l-184 321q-8 14 6 25l20 12q14 10 25 -8l184 -320l324 187q14 8 24 -7l11 -20q10 -16 -6 -27l-322 -186l184 -320q14 -16 -6 -24l-20 -12q-12 -8 -25 6l-184 321l-320 -184q-18 -8 -26 8z" />
<glyph unicode="&#xd8;" horiz-adv-x="1193" d="M186 258v868q0 279 410 279q186 0 287 -55l30 65q12 23 27 23h16q16 0 9 -23l-43 -90q86 -72 86 -199v-868q0 -131 -93.5 -204.5t-318.5 -73.5q-182 0 -285 53l-30 -64q-10 -23 -27 -22h-16q-18 0 -9 22l43 90q-86 68 -86 199zM254 264q0 -88 49 -139l551 1163 q-84 55 -258 55q-342 0 -342 -225v-854zM340 94q86 -53 256 -53q342 0 342 223v854q0 88 -49 139z" />
<glyph unicode="&#xd9;" horiz-adv-x="1218" d="M197 262v1112q0 18 18 19h35q16 0 16 -19v-1104q0 -225 342 -225t342 225v1104q0 18 19 19h35q16 0 16 -19v-1112q0 -279 -411.5 -279t-411.5 279zM410 1780q-14 18 8 18h39q14 0 22 -14l160 -248q10 -16 -8 -16h-31q-14 0 -20 10z" />
<glyph unicode="&#xda;" horiz-adv-x="1218" d="M197 262v1112q0 18 18 19h35q16 0 16 -19v-1104q0 -225 342 -225t342 225v1104q0 18 19 19h35q16 0 16 -19v-1112q0 -279 -411.5 -279t-411.5 279zM575 1536l160 248q10 14 23 14h39q20 0 10 -18l-170 -250q-10 -10 -21 -10h-32q-19 0 -9 16z" />
<glyph unicode="&#xdb;" horiz-adv-x="1218" d="M197 262v1112q0 18 18 19h35q16 0 16 -19v-1104q0 -225 342 -225t342 225v1104q0 18 19 19h35q16 0 16 -19v-1112q0 -279 -411.5 -279t-411.5 279zM403 1538l162 242q14 18 29 18h27q16 0 26 -16l164 -244q10 -18 -8 -18h-29q-12 0 -24 18l-142 211l-141 -211 q-14 -18 -25 -18h-28q-21 0 -11 18z" />
<glyph unicode="&#xdc;" horiz-adv-x="1218" d="M197 262v1112q0 18 18 19h35q16 0 16 -19v-1104q0 -225 342 -225t342 225v1104q0 18 19 19h35q16 0 16 -19v-1112q0 -279 -411.5 -279t-411.5 279zM489 1556v203q0 16 19 17h22q16 0 17 -17v-203q0 -18 -17 -18h-22q-19 0 -19 18zM670 1556v203q0 16 18 17h23 q16 0 16 -17v-203q0 -18 -16 -18h-23q-18 0 -18 18z" />
<glyph unicode="&#xdd;" horiz-adv-x="1026" d="M49 1374q-8 18 12 19h39q14 0 23 -19l362 -667l29 -62q0 8 29 62l364 667q10 18 23 19h33q23 0 12 -19l-426 -786v-570q0 -18 -19 -18h-32q-18 0 -19 18v564zM496 1536l159 248q10 14 23 14h39q20 0 10 -18l-170 -250q-10 -10 -20 -10h-33q-18 0 -8 16z" />
<glyph unicode="&#xde;" horiz-adv-x="1144" d="M209 18v1356q0 18 18 19h33q18 0 19 -19v-368h337q227 0 320.5 -74t93.5 -205v-227q0 -279 -414 -279h-337v-203q0 -18 -19 -18h-33q-18 0 -18 18zM279 283h337q188 0 266.5 59t78.5 166v213q0 106 -78 165.5t-267 59.5h-337v-663z" />
<glyph unicode="&#xdf;" horiz-adv-x="1189" d="M68 963v18q0 18 16 18l115 5h24v206q0 240 362.5 240t362.5 -240v-77q0 -131 -164 -170l-127 -31q-135 -31 -135 -113v-14q0 -98 137 -148l246 -86q195 -70 195 -194v-154q0 -117 -69.5 -178t-256 -61t-254 60t-67.5 177v29q0 18 18 18h25q16 0 16 -18v-31 q0 -88 55.5 -135t207 -47t205.5 47t54 135v150q0 94 -155 145l-244 84q-174 59 -174 203v20q0 51 33.5 89t66.5 52.5t68 20.5l119 27q137 35 137 131v65q0 186 -297 186.5t-297 -186.5v-1188q0 -18 -19 -18h-30q-18 0 -19 18v926h-139q-16 1 -16 19z" />
<glyph unicode="&#xe0;" horiz-adv-x="1019" d="M145 217v109q0 104 62.5 167.5t179.5 63.5h393v221q0 88 -60.5 137.5t-216 49.5t-217 -48.5t-61.5 -136.5v-37q0 -18 -18 -18h-29q-18 0 -18 18v39q0 115 76.5 177.5t267 62.5t267.5 -62.5t77 -177.5v-764q0 -18 -19 -18h-26q-18 0 -19 18l-4 93q-160 -127 -358 -127 q-139 0 -208 63.5t-69 169.5zM211 223q0 -82 55.5 -131t165.5 -49q193 0 348 129v328h-383q-90 0 -138 -49.5t-48 -131.5v-96zM350 1432q-14 18 8 18h39q12 0 23 -14l160 -248q10 -16 -9 -17h-30q-16 0 -21 11z" />
<glyph unicode="&#xe1;" horiz-adv-x="1019" d="M145 217v109q0 104 62.5 167.5t179.5 63.5h393v221q0 88 -60.5 137.5t-216 49.5t-217 -48.5t-61.5 -136.5v-37q0 -18 -18 -18h-29q-18 0 -18 18v39q0 115 76.5 177.5t267 62.5t267.5 -62.5t77 -177.5v-764q0 -18 -19 -18h-26q-18 0 -19 18l-4 93q-160 -127 -358 -127 q-139 0 -208 63.5t-69 169.5zM211 223q0 -82 55.5 -131t165.5 -49q193 0 348 129v328h-383q-90 0 -138 -49.5t-48 -131.5v-96zM434 1188l160 248q10 14 22 14h39q20 0 11 -18l-170 -250q-10 -10 -21 -11h-33q-18 1 -8 17z" />
<glyph unicode="&#xe2;" horiz-adv-x="1019" d="M145 217v109q0 104 62.5 167.5t179.5 63.5h393v221q0 88 -60.5 137.5t-216 49.5t-217 -48.5t-61.5 -136.5v-37q0 -18 -18 -18h-29q-18 0 -18 18v39q0 115 76.5 177.5t267 62.5t267.5 -62.5t77 -177.5v-764q0 -18 -19 -18h-26q-18 0 -19 18l-4 93q-160 -127 -358 -127 q-139 0 -208 63.5t-69 169.5zM211 223q0 -82 55.5 -131t165.5 -49q193 0 348 129v328h-383q-90 0 -138 -49.5t-48 -131.5v-96zM303 1190l162 242q10 18 27 18h26q18 0 29 -16l164 -244q10 -18 -11 -19h-28q-12 0 -25 19l-141 211l-141 -211q-10 -18 -25 -19h-29q-18 1 -8 19 z" />
<glyph unicode="&#xe3;" horiz-adv-x="1019" d="M145 217v109q0 104 62.5 167.5t179.5 63.5h393v221q0 88 -60.5 137.5t-216 49.5t-217 -48.5t-61.5 -136.5v-37q0 -18 -18 -18h-29q-18 0 -18 18v39q0 115 76.5 177.5t267 62.5t267.5 -62.5t77 -177.5v-764q0 -18 -19 -18h-26q-18 0 -19 18l-4 93q-160 -127 -358 -127 q-139 0 -208 63.5t-69 169.5zM211 223q0 -82 55.5 -131t165.5 -49q193 0 348 129v328h-383q-90 0 -138 -49.5t-48 -131.5v-96zM244 1219v30q0 168 129 168q49 0 100 -43l96 -84q43 -35 72 -35q43 0 58.5 26t15.5 101v19q0 16 18 16h21q16 0 16 -18v-31q-2 -168 -127 -168 q-51 0 -102 43l-97 84q-39 35 -69 35q-43 0 -58.5 -25.5t-15.5 -101.5v-18q0 -16 -18 -17h-21q-18 1 -18 19z" />
<glyph unicode="&#xe4;" horiz-adv-x="1019" d="M145 217v109q0 104 62.5 167.5t179.5 63.5h393v221q0 88 -60.5 137.5t-216 49.5t-217 -48.5t-61.5 -136.5v-37q0 -18 -18 -18h-29q-18 0 -18 18v39q0 115 76.5 177.5t267 62.5t267.5 -62.5t77 -177.5v-764q0 -18 -19 -18h-26q-18 0 -19 18l-4 93q-160 -127 -358 -127 q-139 0 -208 63.5t-69 169.5zM211 223q0 -82 55.5 -131t165.5 -49q193 0 348 129v328h-383q-90 0 -138 -49.5t-48 -131.5v-96zM387 1214v203q0 18 19 19h22q16 0 16 -19v-203q0 -18 -16 -18h-22q-19 0 -19 18zM567 1214v203q0 18 19 19h22q16 0 17 -19v-203q0 -18 -17 -18 h-22q-19 0 -19 18z" />
<glyph unicode="&#xe5;" horiz-adv-x="1019" d="M145 217v109q0 104 62.5 167.5t179.5 63.5h393v221q0 88 -60.5 137.5t-216 49.5t-217 -48.5t-61.5 -136.5v-37q0 -18 -18 -18h-29q-18 0 -18 18v39q0 115 76.5 177.5t267 62.5t267.5 -62.5t77 -177.5v-764q0 -18 -19 -18h-26q-18 0 -19 18l-4 93q-160 -127 -358 -127 q-139 0 -208 63.5t-69 169.5zM211 223q0 -82 55.5 -131t165.5 -49q193 0 348 129v328h-383q-90 0 -138 -49.5t-48 -131.5v-96zM332 1290v27q0 147 180 147q178 0 178 -147v-27q0 -145 -178 -145q-180 0 -180 145zM381 1294q0 -104 131 -104q129 0 129 104v19q0 104 -129 104 q-131 0 -131 -104v-19z" />
<glyph unicode="&#xe6;" horiz-adv-x="1617" d="M145 217v86q0 102 63.5 167t178.5 65h393v260q0 172 -278 172q-156 0 -216.5 -48.5t-60.5 -136.5v-39q0 -18 -18 -18h-29q-18 0 -18 18v41q0 115 77.5 176.5t266.5 61.5q256 0 309 -131q66 131 317 131q190 0 269.5 -62.5t79.5 -177.5v-254q0 -18 -17 -18h-614v-293 q0 -86 63.5 -132t218.5 -46q283 0 283 186v54q0 16 19 16h28q18 0 19 -16v-56q0 -240 -349 -239q-289 0 -337 151q-174 -152 -371 -151q-139 0 -208 63.5t-69 169.5zM211 223q0 -84 55.5 -133t165.5 -49q174 0 348 152v288h-385q-88 0 -136 -50t-48 -130v-78zM848 563h565 v217q0 186 -282.5 186.5t-282.5 -186.5v-217z" />
<glyph unicode="&#xe7;" horiz-adv-x="966" d="M162 223v559q0 115 76.5 177.5t267 62.5t268.5 -62.5t78 -177.5v-41q0 -18 -18 -18h-31q-18 0 -19 18v37q0 88 -60 137.5t-216 49.5t-217.5 -49.5t-61.5 -137.5v-551q0 -88 61.5 -136t217.5 -48t216 48t60 136v56q0 18 19 18h31q18 0 18 -18v-60q0 -115 -78 -177 t-268 -62h-14l-29 -97h84q68 0 117 -36.5t49 -122.5q0 -84 -50.5 -122t-115.5 -38h-246q-18 0 -18 18v15q0 18 18 18h240q43 0 78.5 24.5t35.5 84.5q0 109 -114 108h-115q-27 0 -23 23l35 127q-152 10 -214 71.5t-62 165.5z" />
<glyph unicode="&#xe8;" horiz-adv-x="999" d="M162 223v559q0 115 80 177.5t270 62.5t269 -62.5t79 -177.5v-256q0 -18 -16 -18h-615v-281q0 -88 63.5 -137t219.5 -49t219.5 49t63.5 137v52q0 18 18 18h29q18 0 18 -18v-56q0 -115 -80 -177t-270 -62q-348 -1 -348 239zM229 563h566v217q0 184 -283 184.5t-283 -184.5 v-217zM324 1432q-14 18 8 18h39q12 0 22 -14l160 -248q10 -16 -8 -17h-31q-14 0 -20 11z" />
<glyph unicode="&#xe9;" horiz-adv-x="999" d="M162 223v559q0 115 80 177.5t270 62.5t269 -62.5t79 -177.5v-256q0 -18 -16 -18h-615v-281q0 -88 63.5 -137t219.5 -49t219.5 49t63.5 137v52q0 18 18 18h29q18 0 18 -18v-56q0 -115 -80 -177t-270 -62q-348 -1 -348 239zM229 563h566v217q0 184 -283 184.5t-283 -184.5 v-217zM457 1188l159 248q10 14 23 14h39q20 0 10 -18l-170 -250q-10 -10 -20 -11h-33q-18 1 -8 17z" />
<glyph unicode="&#xea;" horiz-adv-x="999" d="M162 223v559q0 115 80 177.5t270 62.5t269 -62.5t79 -177.5v-256q0 -18 -16 -18h-615v-281q0 -88 63.5 -137t219.5 -49t219.5 49t63.5 137v52q0 18 18 18h29q18 0 18 -18v-56q0 -115 -80 -177t-270 -62q-348 -1 -348 239zM229 563h566v217q0 184 -283 184.5t-283 -184.5 v-217zM309 1190l162 242q10 18 27 18h26q18 0 29 -16l164 -244q10 -18 -10 -19h-29q-12 0 -25 19l-141 211l-141 -211q-10 -18 -25 -19h-29q-18 1 -8 19z" />
<glyph unicode="&#xeb;" horiz-adv-x="999" d="M162 223v559q0 115 80 177.5t270 62.5t269 -62.5t79 -177.5v-256q0 -18 -16 -18h-615v-281q0 -88 63.5 -137t219.5 -49t219.5 49t63.5 137v52q0 18 18 18h29q18 0 18 -18v-56q0 -115 -80 -177t-270 -62q-348 -1 -348 239zM229 563h566v217q0 184 -283 184.5t-283 -184.5 v-217zM391 1214v203q0 18 19 19h22q16 0 17 -19v-203q0 -18 -17 -18h-22q-19 0 -19 18zM571 1214v203q0 18 19 19h22q16 0 17 -19v-203q0 -18 -17 -18h-22q-19 0 -19 18z" />
<glyph unicode="&#xec;" horiz-adv-x="438" d="M12 1432q-14 18 8 18h39q12 0 23 -14l160 -248q10 -16 -9 -17h-30q-14 0 -21 11zM184 18v969q0 18 19 19h33q18 0 18 -19v-969q0 -18 -18 -18h-33q-19 0 -19 18z" />
<glyph unicode="&#xed;" horiz-adv-x="438" d="M184 18v969q0 18 19 19h33q18 0 18 -19v-969q0 -18 -18 -18h-33q-19 0 -19 18zM188 1188l160 248q10 14 23 14h39q20 0 10 -18l-170 -250q-10 -10 -21 -11h-32q-19 1 -9 17z" />
<glyph unicode="&#xee;" horiz-adv-x="438" d="M16 1190l162 242q10 18 27 18h26q18 0 29 -16l164 -244q10 -18 -10 -19h-29q-12 0 -25 19l-141 211l-141 -211q-10 -18 -25 -19h-28q-19 1 -9 19zM184 18v969q0 18 19 19h33q18 0 18 -19v-969q0 -18 -18 -18h-33q-19 0 -19 18z" />
<glyph unicode="&#xef;" horiz-adv-x="438" d="M100 1214v203q0 18 19 19h22q16 0 17 -19v-203q0 -18 -17 -18h-22q-19 0 -19 18zM184 18v969q0 18 19 19h33q18 0 18 -19v-969q0 -18 -18 -18h-33q-19 0 -19 18zM281 1214v203q0 18 18 19h23q16 0 16 -19v-203q0 -18 -16 -18h-23q-18 0 -18 18z" />
<glyph unicode="&#xf0;" horiz-adv-x="1122" d="M162 223v559q0 111 68.5 175.5t207.5 64.5q197 0 363 -127v307q0 51 -25 90l-190 -80q-14 -8 -23 7l-6 10q-6 16 8 24l189 78q-66 66 -236 66h-174q-18 0 -18 16v19q0 18 18 18h174q219 0 295 -88l115 49q16 6 22 -6l6 -14q6 -14 -10 -21l-104 -47q25 -49 24 -113v-987 q0 -240 -352 -240t-352 240zM229 227q0 -186 285 -186q287 0 287 186v604q-158 131 -348 132q-111 0 -167.5 -51.5t-56.5 -135.5v-549z" />
<glyph unicode="&#xf1;" horiz-adv-x="1064" d="M186 18v969q0 18 17 19h28q16 0 17 -19l4 -94q156 129 362 129q139 0 209 -63.5t70 -172.5v-768q0 -18 -19 -18h-32q-16 0 -17 18v758q0 84 -55 134.5t-168 50.5q-193 0 -348 -130v-813q0 -18 -18 -18h-33q-17 0 -17 18zM262 1221v30q0 168 129 168q47 0 101 -43l96 -84 q43 -35 71 -35q43 0 58.5 26t15.5 101v19q0 16 19 16h20q16 0 16 -18v-31q-2 -168 -126 -168q-51 0 -103 43l-96 84q-39 35 -70 35q-43 0 -58.5 -25.5t-15.5 -101.5v-18q0 -16 -18 -17h-20q-19 1 -19 19z" />
<glyph unicode="&#xf2;" horiz-adv-x="1030" d="M162 223v559q0 240 352 240q354 0 354 -240v-559q0 -240 -354 -239q-352 -1 -352 239zM229 227q0 -184 285 -184q287 0 287 184v551q0 186 -287 187q-285 0 -285 -187v-551zM319 1432q-14 18 9 18h39q12 0 22 -14l160 -248q10 -16 -8 -17h-31q-14 0 -21 11z" />
<glyph unicode="&#xf3;" horiz-adv-x="1030" d="M162 223v559q0 240 352 240q354 0 354 -240v-559q0 -240 -354 -239q-352 -1 -352 239zM229 227q0 -184 285 -184q287 0 287 184v551q0 186 -287 187q-285 0 -285 -187v-551zM479 1188l160 248q10 14 23 14h38q20 0 11 -18l-170 -250q-10 -10 -21 -11h-33q-18 1 -8 17z " />
<glyph unicode="&#xf4;" horiz-adv-x="1030" d="M162 223v559q0 240 352 240q354 0 354 -240v-559q0 -240 -354 -239q-352 -1 -352 239zM229 227q0 -184 285 -184q287 0 287 184v551q0 186 -287 187q-285 0 -285 -187v-551zM311 1190l162 242q10 18 27 18h26q18 0 29 -16l164 -244q10 -18 -10 -19h-29q-12 0 -25 19 l-141 211l-141 -211q-10 -18 -25 -19h-29q-18 1 -8 19z" />
<glyph unicode="&#xf5;" horiz-adv-x="1030" d="M162 223v559q0 240 352 240q354 0 354 -240v-559q0 -240 -354 -239q-352 -1 -352 239zM229 227q0 -184 285 -184q287 0 287 184v551q0 186 -287 187q-285 0 -285 -187v-551zM252 1219v30q0 168 129 168q49 0 100 -43l97 -84q43 -35 71 -35q43 0 58.5 26t15.5 101v19 q0 16 18 16h21q16 0 16 -18v-31q-2 -168 -127 -168q-51 0 -102 43l-96 84q-39 35 -70 35q-43 0 -58.5 -25.5t-15.5 -101.5v-18q0 -16 -18 -17h-21q-18 1 -18 19z" />
<glyph unicode="&#xf6;" horiz-adv-x="1030" d="M162 223v559q0 240 352 240q354 0 354 -240v-559q0 -240 -354 -239q-352 -1 -352 239zM229 227q0 -184 285 -184q287 0 287 184v551q0 186 -287 187q-285 0 -285 -187v-551zM395 1214v203q0 18 19 19h22q16 0 17 -19v-203q0 -18 -17 -18h-22q-19 0 -19 18zM575 1214v203 q0 18 19 19h22q16 0 17 -19v-203q0 -18 -17 -18h-22q-19 0 -19 18z" />
<glyph unicode="&#xf7;" horiz-adv-x="1214" d="M186 670v24q0 18 15 19h809q18 0 18 -17v-26q0 -18 -18 -19h-807q-17 1 -17 19zM571 276v156q0 18 19 19h33q18 0 18 -19v-156q0 -18 -18 -18h-33q-19 0 -19 18zM571 936v156q0 18 19 18h33q18 0 18 -18v-156q0 -18 -18 -18h-33q-19 0 -19 18z" />
<glyph unicode="&#xf8;" horiz-adv-x="1030" d="M162 223v559q0 240 352 240q158 0 244 -45l35 61q10 23 28 23h19q18 0 4 -23l-49 -86q74 -57 73 -170v-559q0 -240 -354 -239q-162 0 -246 47l-32 -58q-12 -23 -27 -22h-16q-23 0 -9 22l47 82q-69 59 -69 168zM229 227q0 -68 37 -110l459 805q-74 43 -211 43 q-285 0 -285 -187v-551zM301 86q70 -43 213 -43q287 0 287 184v551q0 72 -41 115z" />
<glyph unicode="&#xf9;" horiz-adv-x="1052" d="M174 219v768q0 18 16 19h33q18 0 19 -19v-756q0 -86 54 -136t167 -50q190 0 338 129v813q0 18 16 19h33q18 0 18 -19v-969q0 -18 -18 -18h-27q-18 0 -18 18l-4 93q-147 -127 -350 -127q-137 0 -207 63t-70 172zM350 1432q-14 18 8 18h39q12 0 23 -14l160 -248 q10 -16 -9 -17h-30q-16 0 -21 11z" />
<glyph unicode="&#xfa;" horiz-adv-x="1052" d="M174 219v768q0 18 16 19h33q18 0 19 -19v-756q0 -86 54 -136t167 -50q190 0 338 129v813q0 18 16 19h33q18 0 18 -19v-969q0 -18 -18 -18h-27q-18 0 -18 18l-4 93q-147 -127 -350 -127q-137 0 -207 63t-70 172zM477 1188l160 248q10 14 22 14h39q20 0 11 -18l-170 -250 q-10 -10 -21 -11h-33q-18 1 -8 17z" />
<glyph unicode="&#xfb;" horiz-adv-x="1052" d="M174 219v768q0 18 16 19h33q18 0 19 -19v-756q0 -86 54 -136t167 -50q190 0 338 129v813q0 18 16 19h33q18 0 18 -19v-969q0 -18 -18 -18h-27q-18 0 -18 18l-4 93q-147 -127 -350 -127q-137 0 -207 63t-70 172zM324 1190l161 242q10 18 27 18h27q18 0 28 -16l164 -244 q10 -18 -10 -19h-29q-12 0 -24 19l-142 211l-141 -211q-10 -18 -25 -19h-28q-18 1 -8 19z" />
<glyph unicode="&#xfc;" horiz-adv-x="1052" d="M174 219v768q0 18 16 19h33q18 0 19 -19v-756q0 -86 54 -136t167 -50q190 0 338 129v813q0 18 16 19h33q18 0 18 -19v-969q0 -18 -18 -18h-27q-18 0 -18 18l-4 93q-147 -127 -350 -127q-137 0 -207 63t-70 172zM410 1214v203q0 18 18 19h23q16 0 16 -19v-203 q0 -18 -16 -18h-23q-18 0 -18 18zM590 1214v203q0 18 18 19h23q16 0 16 -19v-203q0 -18 -16 -18h-23q-18 0 -18 18z" />
<glyph unicode="&#xfd;" horiz-adv-x="835" d="M47 987q-8 18 12 19h35q16 0 23 -19l276 -803l27 -90q12 57 24 90l277 803q6 18 20 19h35q20 0 12 -19l-479 -1399q-8 -18 -20 -18h-29q-20 0 -12 18l137 414zM389 1188l160 248q10 14 22 14h39q20 0 11 -18l-170 -250q-10 -10 -21 -11h-33q-18 1 -8 17z" />
<glyph unicode="&#xfe;" horiz-adv-x="1054" d="M184 -412v1825q0 18 19 19h33q18 0 18 -19v-518q160 127 360 127q139 0 209 -64.5t70 -175.5v-559q0 -111 -69.5 -175t-209.5 -64q-207 0 -360 127v-523q0 -18 -18 -18h-33q-19 0 -19 18zM254 174q150 -129 348 -129q113 0 168 50t55 134v547q0 84 -56 135.5t-167 51.5 q-197 0 -348 -132v-657z" />
<glyph unicode="&#xff;" horiz-adv-x="835" d="M47 987q-8 18 12 19h35q16 0 23 -19l276 -803l27 -90q12 57 24 90l277 803q6 18 20 19h35q20 0 12 -19l-479 -1399q-8 -18 -20 -18h-29q-20 0 -12 18l137 414zM307 1214v203q0 18 19 19h22q16 0 17 -19v-203q0 -18 -17 -18h-22q-19 0 -19 18zM487 1214v203q0 18 19 19h22 q16 0 17 -19v-203q0 -18 -17 -18h-22q-19 0 -19 18z" />
<glyph unicode="&#x152;" horiz-adv-x="1816" d="M184 262v868q0 279 412 279q248 0 342 -109v74q0 18 18 19h699q18 0 18 -19v-24q0 -16 -18 -17h-647v-567h610q18 0 18 -18v-23q0 -18 -18 -18h-610v-648h673q18 0 19 -16v-25q0 -18 -19 -18h-727q-16 0 -16 18v74q-94 -109 -342 -108q-412 -1 -412 278zM254 268 q0 -225 342 -225t342 225v865q-6 217 -342 217q-342 0 -342 -226v-856z" />
<glyph unicode="&#x153;" horiz-adv-x="1638" d="M162 223v559q0 240 352 240q252 0 315 -121q68 121 322 121q190 0 269 -62.5t79 -177.5v-254q0 -18 -16 -18h-615v-285q0 -186 283 -186t283 186v54q0 16 18 16h29q18 0 18 -16v-56q0 -115 -79 -177t-269 -62q-254 0 -322 120q-63 -121 -315 -120q-352 -1 -352 239z M229 227q0 -186 285 -186q287 0 287 186v551q0 186 -287 187q-285 0 -285 -187v-551zM868 563h566v217q0 186 -283 186.5t-283 -186.5v-217z" />
<glyph unicode="&#x178;" horiz-adv-x="1026" d="M49 1374q-8 18 12 19h39q14 0 23 -19l362 -667l29 -62q0 8 29 62l364 667q10 18 23 19h33q23 0 12 -19l-426 -786v-570q0 -18 -19 -18h-32q-18 0 -19 18v564zM393 1556v203q0 16 19 17h22q16 0 17 -17v-203q0 -18 -17 -18h-22q-19 0 -19 18zM573 1556v203q0 16 19 17h22 q16 0 17 -17v-203q0 -18 -17 -18h-22q-19 0 -19 18z" />
<glyph unicode="&#x2c6;" horiz-adv-x="700" d="M145 1190l162 242q10 18 27 18h26q18 0 29 -16l164 -244q10 -18 -10 -19h-29q-12 0 -25 19l-141 211l-141 -211q-10 -18 -25 -19h-28q-19 1 -9 19z" />
<glyph unicode="&#x2dc;" horiz-adv-x="880" d="M176 1219v30q0 168 129 168q47 0 101 -43l96 -84q43 -35 71 -35q43 0 58.5 26t15.5 101v19q0 16 19 16h20q16 0 16 -18v-31q-2 -168 -127 -168q-51 0 -102 43l-96 84q-39 35 -70 35q-43 0 -58.5 -25.5t-15.5 -101.5v-18q0 -16 -18 -17h-20q-19 1 -19 19z" />
<glyph unicode="&#x2000;" horiz-adv-x="903" />
<glyph unicode="&#x2001;" horiz-adv-x="1806" />
<glyph unicode="&#x2002;" horiz-adv-x="903" />
<glyph unicode="&#x2003;" horiz-adv-x="1806" />
<glyph unicode="&#x2004;" horiz-adv-x="602" />
<glyph unicode="&#x2005;" horiz-adv-x="450" />
<glyph unicode="&#x2006;" horiz-adv-x="301" />
<glyph unicode="&#x2007;" horiz-adv-x="301" />
<glyph unicode="&#x2008;" horiz-adv-x="225" />
<glyph unicode="&#x2009;" horiz-adv-x="360" />
<glyph unicode="&#x200a;" horiz-adv-x="100" />
<glyph unicode="&#x2010;" horiz-adv-x="956" d="M184 582v22q0 18 19 19h551q18 0 18 -19v-22q0 -18 -18 -19h-551q-19 1 -19 19z" />
<glyph unicode="&#x2011;" horiz-adv-x="956" d="M184 582v22q0 18 19 19h551q18 0 18 -19v-22q0 -18 -18 -19h-551q-19 1 -19 19z" />
<glyph unicode="&#x2012;" horiz-adv-x="956" d="M184 582v22q0 18 19 19h551q18 0 18 -19v-22q0 -18 -18 -19h-551q-19 1 -19 19z" />
<glyph unicode="&#x2013;" horiz-adv-x="1132" d="M184 582v22q0 18 19 19h727q18 0 18 -19v-22q0 -18 -18 -19h-727q-19 1 -19 19z" />
<glyph unicode="&#x2014;" horiz-adv-x="1765" d="M184 582v22q0 18 19 19h1358q18 0 18 -19v-22q0 -18 -18 -19h-1358q-19 1 -19 19z" />
<glyph unicode="&#x2018;" horiz-adv-x="419" d="M170 1128v119q0 160 154 215q16 6 22 -8l10 -24q6 -14 -10 -25q-106 -51 -106 -160v-117q0 -18 -19 -18h-33q-18 0 -18 18z" />
<glyph unicode="&#x2019;" horiz-adv-x="417" d="M61 1145q-6 14 11 24q106 51 106 160v117q0 18 19 18h32q18 0 19 -18v-119q0 -160 -154 -215q-16 -6 -22 8z" />
<glyph unicode="&#x201a;" horiz-adv-x="417" d="M61 -127q-6 14 11 25q106 51 106 159v117q0 18 19 19h32q18 0 19 -19v-119q0 -160 -154 -215q-16 -6 -22 8z" />
<glyph unicode="&#x201c;" horiz-adv-x="669" d="M170 1128v119q0 160 154 215q16 6 22 -8l10 -24q6 -14 -10 -25q-106 -51 -106 -160v-117q0 -18 -19 -18h-33q-18 0 -18 18zM422 1128v119q0 160 153 215q16 6 23 -8l10 -24q6 -14 -10 -25q-106 -51 -106 -160v-117q0 -18 -19 -18h-33q-18 0 -18 18z" />
<glyph unicode="&#x201d;" horiz-adv-x="669" d="M61 1145q-6 14 11 24q106 51 106 160v117q0 18 19 18h32q18 0 19 -18v-119q0 -160 -154 -215q-16 -6 -22 8zM313 1145q-6 14 11 24q106 51 106 160v117q0 18 19 18h32q18 0 19 -18v-119q0 -160 -154 -215q-16 -6 -22 8z" />
<glyph unicode="&#x201e;" horiz-adv-x="669" d="M61 -127q-6 14 11 25q106 51 106 159v117q0 18 19 19h32q18 0 19 -19v-119q0 -160 -154 -215q-16 -6 -22 8zM313 -127q-6 14 11 25q106 51 106 159v117q0 18 19 19h32q18 0 19 -19v-119q0 -160 -154 -215q-16 -6 -22 8z" />
<glyph unicode="&#x2022;" horiz-adv-x="487" d="M209 403v246q0 18 18 19h33q18 0 19 -19v-246q0 -18 -19 -18h-33q-18 0 -18 18z" />
<glyph unicode="&#x2026;" horiz-adv-x="1431" d="M174 18v156q0 18 19 19h32q18 0 19 -19v-156q0 -18 -19 -18h-32q-19 0 -19 18zM682 18v156q0 18 18 19h33q18 0 19 -19v-156q0 -18 -19 -18h-33q-18 0 -18 18zM1188 18v156q0 18 18 19h33q18 0 18 -19v-156q0 -18 -18 -18h-33q-18 0 -18 18z" />
<glyph unicode="&#x202f;" horiz-adv-x="360" />
<glyph unicode="&#x2039;" horiz-adv-x="798" d="M190 487v29q0 12 17 25l383 293q6 4 12 2t6 -11v-43q0 -10 -18 -24l-340 -256l340 -256q18 -14 18 -27v-39q0 -23 -18 -8l-383 291q-17 12 -17 24z" />
<glyph unicode="&#x203a;" horiz-adv-x="798" d="M190 180v39q0 12 19 27l340 256l-340 256q-18 14 -19 24v43q0 8 6.5 10.5t12.5 -1.5l383 -293q16 -12 16 -25v-29q0 -12 -16 -24l-383 -291q-19 -15 -19 8z" />
<glyph unicode="&#x205f;" horiz-adv-x="450" />
<glyph unicode="&#x20ac;" horiz-adv-x="1314" d="M188 571v17q0 18 19 18h115v185h-115q-18 0 -19 16v16q0 18 19 19h115v288q0 131 89 205t312 74q225 0 315 -73.5t90 -205.5v-108q0 -18 -18 -18h-33q-16 0 -16 18v100q0 109 -75 167.5t-261 58.5t-261 -58.5t-75 -167.5v-280h385q18 0 19 -19v-16q0 -16 -19 -16h-385 v-185h385q18 0 19 -18v-17q0 -16 -19 -16h-385v-285q0 -109 75 -167t261 -58t261 58.5t75 166.5v125q0 16 16 17h33q18 0 18 -17v-133q0 -131 -90 -204.5t-315 -73.5q-223 0 -312 73.5t-89 204.5v293h-115q-19 0 -19 16z" />
<glyph unicode="&#x2122;" horiz-adv-x="1798" d="M209 1354v24q0 14 16 15h551q16 0 17 -15v-24q0 -14 -17 -15h-246v-768q0 -14 -12 -14h-35q-14 0 -14 14v768h-244q-16 1 -16 15zM895 571v807q0 14 12 15h31q12 0 14 -9l271 -583q10 -23 18 -51l8 22q8 23 13 29l268 583q2 8 14 9h31q14 0 14 -15v-807q0 -14 -14 -14 h-31q-14 0 -14 14v695l-4 -11q-4 -10 -8 -22l-7 -19l-235 -516q-6 -14 -21 -14h-28q-10 0 -19 14l-239 521q-4 6 -17 47v-695q0 -14 -14 -14h-31q-12 0 -12 14z" />
<glyph unicode="&#xe000;" horiz-adv-x="1004" d="M0 1005h1005v-1005h-1005v1005z" />
<glyph unicode="&#xfb01;" horiz-adv-x="1062" d="M68 963v18q0 18 16 18l115 5h24v188q0 115 80 177.5t270 62.5h232q16 0 16 -19v-22q0 -18 -16 -19h-232q-156 0 -219 -49t-63 -137v-182h567q20 0 21 -21v-965q0 -18 -19 -18h-33q-16 0 -16 18v926h-520v-926q0 -18 -17 -18h-32q-18 0 -19 18v926h-139q-16 1 -16 19z" />
<glyph unicode="&#xfb02;" horiz-adv-x="1062" d="M68 963v18q0 18 16 18l115 5h24v188q0 115 80 177.5t270 62.5h285q20 0 21 -19v-1395q0 -18 -19 -18h-33q-16 0 -16 18v1354h-238q-156 0 -219 -49t-63 -137v-182h254q18 0 18 -19v-22q0 -18 -18 -19h-254v-926q0 -18 -17 -18h-32q-18 0 -19 18v926h-139q-16 1 -16 19z " />
<glyph unicode="&#xfb03;" horiz-adv-x="1652" d="M70 963v18q0 18 18 18l115 5h22v196q0 240 350 240h9q18 0 18 -19v-22q0 -18 -18 -19h-9q-156 0 -218 -48t-62 -138v-190h518v188q0 115 80 177.5t270 62.5h232q18 0 18 -19v-22q0 -18 -18 -19h-232q-156 0 -219 -49t-63 -137v-182h567q20 0 20 -21v-965q0 -18 -18 -18 h-33q-16 0 -16 18v926h-520v-926q0 -18 -17 -18h-33q-18 0 -18 18v926h-518v-926q0 -18 -19 -18h-32q-18 0 -19 18v926h-137q-18 1 -18 19z" />
<glyph unicode="&#xfb04;" horiz-adv-x="1652" d="M70 963v18q0 18 18 18l115 5h24v196q0 240 348 240h9q18 0 18 -19v-22q0 -18 -18 -19h-9q-156 0 -218 -48t-62 -138v-190h518v188q0 115 80 177.5t270 62.5h285q20 0 20 -19v-1395q0 -18 -18 -18h-31q-18 0 -18 18v1354h-238q-156 0 -218 -48t-62 -138v-182h252 q18 0 18 -19v-22q0 -18 -18 -19h-252v-926q0 -18 -19 -18h-33q-18 0 -18 18v926h-518v-926q0 -18 -19 -18h-32q-16 0 -17 18v926h-139q-18 1 -18 19z" />
<glyph horiz-adv-x="0" />
</font>
</defs>
</svg>
